<svg version="1.1" xmlns="http://www.w3.org/2000/svg" width="32" height="32" viewBox="0 0 32 32">
<path fill="#fff" d="M-3.2-3.2h38.4v38.4h-38.4v-38.4z"></path>
<path fill="#ffde59" d="M19.804 18.186c0.384-0.672 0.604-1.45 0.604-2.279 0-0.274-0.024-0.543-0.070-0.804-0.186 1.035-0.736 1.943-1.513 2.587-0.45 0.373-1.119 0.297-1.471-0.169l-0.656-0.87c-0.109-0.145-0.28-0.23-0.461-0.23h-2.502c-0.001 0-0.001 0-0.002 0-0.171 0.001-0.281 0.181-0.205 0.334l0.1 0.198c0.185 0.369 0.549 0.614 0.961 0.646l0.797 0.063c0.184 0.015 0.349 0.116 0.445 0.273l0.294 0.481 0.165 0.27 0.923 1.509c0.016 0.027 0.037 0.051 0.060 0.070 0.068 0.056 0.159 0.080 0.248 0.058 0.001 0 0.001-0 0.002-0 2.394-0.591 4.238-2.577 4.621-5.046-0.336 1.267-1.199 2.319-2.34 2.907z"></path>
<path fill="#004aad" d="M15.654 18.044c-0.061-0.1-0.168-0.166-0.285-0.175l-0.797-0.063c-0.48-0.038-0.913-0.329-1.129-0.759l-0.094-0.188c-0.067-0.133-0.069-0.293 0.005-0.423 0.076-0.134 0.214-0.216 0.367-0.221l0.014-0h0.801c-0.261-0.412-0.732-0.644-1.219-0.599l-0.832 0.078c-0.356 0.033-0.677-0.212-0.742-0.564-0.049-0.261-0.074-0.53-0.074-0.805 0-1.394 0.653-2.636 1.67-3.436-1.007 0.663-1.791 1.638-2.214 2.788 0.381-2.769 2.757-4.903 5.631-4.903 1.779 0 3.367 0.818 4.41 2.097-1.108-1.641-2.982-2.721-5.109-2.726-3.405-0.009-6.192 2.766-6.197 6.171-0.002 1.199 0.338 2.318 0.927 3.266 0.013 0.020 0.025 0.040 0.037 0.060l0.825-0.14c0.369-0.062 0.672 0.294 0.547 0.646-0.004 0.010-0.006 0.015-0.006 0.015 0.531 0.193 0.441 0.71 0.441 0.71 0.469 0.214 0.276 0.655 0.276 0.655 0.166 0.069 0.224 0.203 0.239 0.246 0.008 0.023 0.016 0.045 0.025 0.067l0.321 0.823c0.055 0.141 0.225 0.257 0.377 0.257 0.192 0 0.324-0.191 0.257-0.371l-0.35-0.932c-0.014-0.037 0.012-0.078 0.052-0.081 0.027-0.002 0.051 0.015 0.061 0.040l0.263 0.634 0.195 0.469c0.067 0.161 0.244 0.254 0.412 0.205 0.201-0.059 0.301-0.284 0.21-0.472 0-0 0-0 0-0.001l-0.482-0.995c-0.021-0.043 0.008-0.093 0.055-0.097 0.027-0.003 0.053 0.011 0.066 0.035l0.659 1.228c0.072 0.134 0.229 0.203 0.373 0.156 0.112-0.037 0.187-0.131 0.206-0.237 0.012-0.064 0.004-0.134-0.029-0.197l-0.459-0.889c-0.020-0.039-0.005-0.089 0.035-0.106 0.036-0.015 0.076 0.001 0.094 0.034l0.519 0.98c0.042 0.079 0.104 0.141 0.177 0.181 0.122 0.068 0.272 0.077 0.407 0.014 0.026-0.012 0.050-0.027 0.072-0.043 0.184-0.134 0.242-0.391 0.118-0.592l-1.123-1.837z"></path>
<path fill="#ffde59" d="M11.171 18.416l0.649-0.108c0.195-0.032 0.326-0.216 0.294-0.411s-0.216-0.327-0.411-0.294l-0.649 0.108c-0.195 0.032-0.326 0.216-0.294 0.411s0.216 0.326 0.411 0.294z"></path>
<path fill="#ffde59" d="M12.445 18.6c-0.032-0.195-0.216-0.326-0.411-0.294l-0.886 0.169c-0.195 0.032-0.326 0.216-0.294 0.411s0.216 0.326 0.411 0.294l0.886-0.169c0.195-0.032 0.326-0.217 0.294-0.411z"></path>
<path fill="#ffde59" d="M12.744 19.336c-0.032-0.195-0.216-0.327-0.411-0.294l-0.649 0.108c-0.195 0.032-0.326 0.216-0.294 0.411s0.216 0.326 0.411 0.294l0.649-0.108c0.195-0.032 0.327-0.216 0.294-0.411z"></path>
<path fill="#ffde59" d="M12.784 19.732l-0.533 0.085c-0.195 0.032-0.326 0.216-0.294 0.411s0.216 0.326 0.411 0.294l0.533-0.085c0.195-0.032 0.327-0.216 0.294-0.411s-0.216-0.326-0.411-0.294z"></path>
<path fill="#004aad" d="M17.301 14.49c0.193-0.124 0.311-0.332 0.311-0.583 0-0.414-0.312-0.714-0.744-0.714h-0.43c-0.029 0-0.108 0-0.178 0h-0.061c-0.031 0-0.054 0.022-0.054 0.052v1.736c0 0.033 0.023 0.053 0.054 0.053h0.233c0.033 0 0.056-0.021 0.056-0.053v-0.373h0.381c0.043 0 0.085-0.002 0.126-0.008l0.19 0.39c0.013 0.025 0.039 0.045 0.062 0.045h0.266c0.039 0 0.053-0.028 0.035-0.063zM16.847 14.323h-0.359v-0.83h0.359c0.242 0 0.424 0.173 0.424 0.412 0 0.246-0.177 0.418-0.424 0.418z"></path>
<path fill="#004aad" d="M19.794 14.975l-0.786-1.757c-0.013-0.029-0.038-0.048-0.067-0.048h-0.016c-0.027 0-0.053 0.018-0.066 0.047l-0.784 1.757c-0.017 0.038 0.001 0.062 0.041 0.062h0.259c0.030 0 0.052-0.022 0.063-0.047l0.074-0.178h0.846l0.074 0.179c0.011 0.026 0.034 0.047 0.062 0.047h0.26c0.040 0 0.056-0.027 0.040-0.062zM18.633 14.517l0.303-0.733 0.302 0.733z"></path>
<path fill="#004aad" d="M20.177 13.438c0 0.035 0.021 0.055 0.053 0.055h0.458v1.489c0 0.034 0.019 0.053 0.053 0.053h0.234c0.035 0 0.054-0.020 0.054-0.053v-1.489h0.462c0.033 0 0.052-0.021 0.052-0.055v-0.191c0-0.033-0.019-0.053-0.052-0.053h-1.261c-0.034 0-0.053 0.019-0.053 0.053z"></path>
<path fill="#004aad" d="M22.694 15.063c0.388 0 0.66-0.217 0.66-0.56 0-0.326-0.273-0.439-0.568-0.534-0.215-0.073-0.389-0.143-0.389-0.281 0-0.115 0.102-0.196 0.277-0.196 0.107 0 0.228 0.045 0.31 0.122 0.039 0.026 0.071 0.035 0.105-0.005l0.127-0.145c0.023-0.028 0.022-0.062-0.004-0.090-0.106-0.125-0.315-0.208-0.523-0.208-0.385 0-0.629 0.207-0.629 0.518 0 0.298 0.204 0.431 0.551 0.545 0.248 0.085 0.388 0.148 0.388 0.279 0 0.142-0.113 0.228-0.32 0.228-0.154 0-0.326-0.090-0.434-0.206-0.029-0.027-0.059-0.031-0.081-0.011l-0.158 0.158c-0.027 0.025-0.029 0.056-0.011 0.079 0.133 0.182 0.418 0.308 0.697 0.308z"></path>
<path fill="#004aad" d="M24.28 13.232c0-0.026-0.015-0.041-0.041-0.041h-0.26c-0.026 0-0.040 0.015-0.040 0.041v1.763c0 0.025 0.014 0.040 0.040 0.040h0.26c0.027 0 0.041-0.015 0.041-0.040z"></path>
<path fill="#004aad" d="M26.529 14.975l-0.786-1.757c-0.013-0.029-0.038-0.048-0.067-0.048h-0.016c-0.027 0-0.053 0.018-0.066 0.047l-0.784 1.757c-0.017 0.038 0.001 0.062 0.041 0.062h0.259c0.030 0 0.052-0.022 0.063-0.047l0.074-0.178h0.846l0.074 0.179c0.011 0.026 0.034 0.047 0.062 0.047h0.26c0.040 0 0.056-0.027 0.040-0.062zM25.367 14.517l0.303-0.733 0.302 0.733z"></path>
<path fill="#004aad" d="M15.043 14.012c0.808-0.145 1.427-0.857 1.427-1.705 0-0.953-0.78-1.732-1.733-1.732h-2.425l0.693 0.693h1.732c0.572 0 1.040 0.468 1.040 1.039s-0.468 1.040-1.040 1.040h-0.346v1.058l0.693-0.4c-0.014 0.003-0.027 0.005-0.041 0.008z"></path>
<path fill="#ffde59" d="M13.697 14.039c0-0.462 0-0.924 0-1.386h1.039c0.191 0 0.347-0.156 0.347-0.347s-0.156-0.346-0.347-0.346h-1.732c0 0.693 0 1.386 0 2.079v1.165l0.693-0.4z"></path>
</svg>
