<svg width="294" height="225" viewBox="0 0 294 225" fill="none" xmlns="http://www.w3.org/2000/svg">
<path d="M174.808 176.392C181.552 164.59 185.416 150.926 185.416 136.367C185.416 131.555 184.994 126.83 184.186 122.246C180.92 140.424 171.26 156.37 157.614 167.681C149.711 174.231 137.962 172.897 131.78 164.713L120.259 149.433C118.344 146.887 115.341 145.394 112.162 145.394H68.1858C65.1826 145.411 63.2508 148.573 64.5855 151.26L66.3418 154.737C69.5908 161.218 75.9836 165.52 83.2193 166.082L97.2166 167.189C100.448 167.452 103.346 169.226 105.032 171.983L129.303 211.675C129.584 212.149 129.953 212.57 130.357 212.904C131.551 213.888 133.15 214.309 134.713 213.923H134.748C176.792 203.543 209.178 168.664 215.904 125.302C210.003 147.554 194.847 166.03 174.808 176.356V176.392Z" fill="#FFDE59"/>
<path d="M101.923 173.898C100.852 172.142 98.9729 170.982 96.9181 170.824L82.9207 169.718C74.4907 169.05 66.8862 163.94 63.0927 156.388L61.4418 153.086C60.2651 150.75 60.23 147.94 61.5296 145.657C62.8644 143.304 65.288 141.864 67.9751 141.776H82.2885C77.7047 134.54 69.4328 130.466 60.8798 131.256L46.2678 132.626C40.0156 133.205 34.378 128.903 33.2364 122.721C32.3759 118.137 31.9368 113.412 31.9368 108.583C31.9368 84.1007 43.4051 62.288 61.2662 48.238C43.5807 59.882 29.8118 77.0054 22.3828 97.2023C29.0741 48.5717 70.8026 11.0934 121.277 11.0934C152.521 11.0934 180.41 25.4595 198.728 47.9219C179.269 19.1019 146.356 0.134369 109.001 0.0465565C49.2007 -0.111506 0.254059 48.6244 0.166246 108.425C0.131121 129.482 6.10237 149.135 16.4467 165.784C16.675 166.135 16.8858 166.486 17.0965 166.838L31.5856 164.379C38.0661 163.29 43.3876 169.542 41.1923 175.724C41.122 175.9 41.0869 175.988 41.0869 175.988C50.4126 179.377 48.8319 188.457 48.8319 188.457C57.0687 192.215 53.6792 199.96 53.6792 199.96C56.5946 201.172 57.6132 203.526 57.8766 204.281C58.0171 204.685 58.1576 205.071 58.3157 205.458L63.9532 219.911C64.9192 222.388 67.9048 224.425 70.5743 224.425C73.9463 224.425 76.2646 221.071 75.0879 217.909L68.941 201.541C68.6951 200.891 69.1518 200.171 69.8543 200.119C70.3284 200.083 70.7499 200.382 70.9256 200.821L78.9692 220.192C80.1459 223.02 83.2544 224.653 86.2049 223.793C89.735 222.757 91.4912 218.805 89.8931 215.503L81.4279 198.011C81.0591 197.256 81.5684 196.378 82.3939 196.307C82.8681 196.255 83.3247 196.501 83.553 196.922L95.1267 218.489C96.3912 220.842 99.1485 222.054 101.678 221.229C103.645 220.579 104.962 218.928 105.295 217.066C105.506 215.942 105.366 214.713 104.786 213.607L96.7249 197.993C96.3736 197.309 96.6371 196.43 97.3396 196.132C97.9718 195.868 98.6743 196.149 98.9904 196.729L108.105 213.94C108.843 215.328 109.932 216.417 111.214 217.119C113.357 218.313 115.991 218.471 118.362 217.365C118.819 217.154 119.24 216.891 119.626 216.61C122.858 214.256 123.877 209.743 121.699 206.213L101.976 173.95L101.923 173.898Z" fill="#004AAD"/>
<path d="M23.1907 180.431L34.5887 178.534C38.0134 177.972 40.3141 174.741 39.7521 171.316C39.1901 167.891 35.9586 165.573 32.5339 166.153L21.1359 168.049C17.7112 168.611 15.4105 171.843 15.9725 175.268C16.5345 178.692 19.766 180.993 23.1907 180.431Z" fill="#FFDE59"/>
<path d="M45.5653 183.663C45.0033 180.238 41.7718 177.937 38.3471 178.499L22.7868 181.467C19.3621 182.029 17.0614 185.261 17.6234 188.685C18.1854 192.11 21.4169 194.411 24.8416 193.849L40.4019 190.881C43.8266 190.319 46.1273 187.07 45.5653 183.663Z" fill="#FFDE59"/>
<path d="M50.8165 196.589C50.2545 193.164 47.023 190.846 43.5983 191.425L32.2003 193.322C28.7756 193.884 26.4749 197.115 27.0369 200.54C27.5989 203.965 30.8304 206.265 34.2551 205.703L45.6531 203.807C49.0778 203.245 51.3961 200.013 50.8165 196.589Z" fill="#FFDE59"/>
<path d="M51.519 203.543L42.1582 205.036C38.7335 205.598 36.4328 208.83 36.9948 212.254C37.5568 215.679 40.7883 217.98 44.213 217.418L53.5738 215.925C56.9985 215.363 59.3168 212.131 58.7372 208.707C58.1576 205.282 54.9437 202.981 51.519 203.543Z" fill="#FFDE59"/>
<path d="M130.849 111.481C134.238 109.303 136.311 105.65 136.311 101.242C136.311 93.9708 130.831 88.7021 123.244 88.7021H115.692C115.183 88.7021 113.796 88.7021 112.566 88.7021H111.495C110.95 88.7021 110.547 89.0884 110.547 89.6153V120.104C110.547 120.683 110.95 121.035 111.495 121.035H115.587C116.167 121.035 116.571 120.666 116.571 120.104V113.553H123.262C124.017 113.553 124.755 113.518 125.475 113.413L128.812 120.262C129.04 120.701 129.496 121.052 129.9 121.052H134.572C135.257 121.052 135.503 120.56 135.187 119.946L130.849 111.481ZM122.875 108.548H116.571V93.9708H122.875C127.126 93.9708 130.322 97.0091 130.322 101.207C130.322 105.527 127.213 108.548 122.875 108.548Z" fill="#004AAD"/>
<path d="M174.632 119.998L160.828 89.1411C160.6 88.6318 160.161 88.2981 159.651 88.2981H159.37C158.896 88.2981 158.439 88.6143 158.211 89.1236L144.442 119.981C144.144 120.648 144.46 121.07 145.162 121.07H149.711C150.238 121.07 150.624 120.683 150.817 120.244L152.117 117.118H166.975L168.274 120.262C168.468 120.718 168.872 121.087 169.363 121.087H173.93C174.632 121.087 174.913 120.613 174.632 119.998ZM154.242 111.955L159.564 99.0815L164.867 111.955H154.242Z" fill="#004AAD"/>
<path d="M181.359 93.0049C181.359 93.6195 181.727 93.9708 182.289 93.9708H190.333V120.121C190.333 120.719 190.667 121.052 191.264 121.052H195.373C195.988 121.052 196.322 120.701 196.322 120.121V93.9708H204.436C205.015 93.9708 205.349 93.602 205.349 93.0049V89.6504C205.349 89.0709 205.015 88.7196 204.436 88.7196H182.289C181.692 88.7196 181.359 89.0533 181.359 89.6504V93.0049Z" fill="#004AAD"/>
<path d="M225.563 121.544C232.378 121.544 237.155 117.733 237.155 111.709C237.155 105.984 232.36 103.999 227.179 102.331C223.403 101.049 220.347 99.8191 220.347 97.3955C220.347 95.3758 222.139 93.9533 225.212 93.9533C227.091 93.9533 229.216 94.7436 230.657 96.0959C231.341 96.5525 231.903 96.7106 232.501 96.0081L234.731 93.4615C235.135 92.9698 235.117 92.3726 234.661 91.8809C232.799 89.6856 229.129 88.2279 225.476 88.2279C218.714 88.2279 214.429 91.8633 214.429 97.3253C214.429 102.559 218.012 104.895 224.106 106.897C228.461 108.39 230.92 109.496 230.92 111.797C230.92 114.291 228.935 115.801 225.3 115.801C222.595 115.801 219.575 114.22 217.678 112.183C217.169 111.709 216.642 111.639 216.255 111.99L213.48 114.765C213.006 115.204 212.971 115.748 213.287 116.152C215.623 119.349 220.628 121.562 225.528 121.562L225.563 121.544Z" fill="#004AAD"/>
<path d="M253.417 89.387C253.417 88.9304 253.154 88.6669 252.697 88.6669H248.131C247.675 88.6669 247.429 88.9304 247.429 89.387V120.35C247.429 120.789 247.675 121.052 248.131 121.052H252.697C253.172 121.052 253.417 120.789 253.417 120.35V89.387Z" fill="#004AAD"/>
<path d="M292.916 119.998L279.111 89.1411C278.883 88.6318 278.444 88.2981 277.935 88.2981H277.654C277.18 88.2981 276.723 88.6143 276.495 89.1236L262.726 119.981C262.427 120.648 262.743 121.07 263.446 121.07H267.994C268.521 121.07 268.908 120.683 269.101 120.244L270.4 117.118H285.258L286.558 120.262C286.751 120.718 287.155 121.087 287.647 121.087H292.213C292.916 121.087 293.197 120.613 292.916 119.998ZM272.508 111.955L277.829 99.0815L283.133 111.955H272.508Z" fill="#004AAD"/>
<path d="M91.1927 103.086C105.383 100.539 116.254 88.0347 116.254 73.1417C116.254 56.4046 102.556 42.7234 85.8186 42.7234H43.2295L55.4003 54.8942H85.8186C95.8643 54.8942 104.084 63.1135 104.084 73.1417C104.084 83.1699 95.8643 91.4067 85.8186 91.4067H79.7419V109.988L91.9127 102.963C91.6669 103.016 91.4386 103.033 91.1927 103.086Z" fill="#004AAD"/>
<path d="M67.5536 103.56C67.5536 95.4461 67.5536 87.3322 67.5536 79.2183H85.801C89.1554 79.2183 91.8952 76.4786 91.8952 73.1241C91.8952 69.7697 89.1554 67.0475 85.801 67.0475H55.3828C55.3828 79.2183 55.3828 91.3891 55.3828 103.56V124.02L67.5536 116.995V103.56Z" fill="#FFDE59"/>
</svg>
