<svg width="16" height="17" viewBox="0 0 16 17" fill="none" xmlns="http://www.w3.org/2000/svg">
<path fill-rule="evenodd" clip-rule="evenodd" d="M11.3666 2.64688C11.4198 2.69332 11.462 2.74849 11.4908 2.80922C11.5196 2.86996 11.5344 2.93508 11.5344 3.00084C11.5344 3.06659 11.5196 3.13171 11.4908 3.19245C11.462 3.25318 11.4198 3.30835 11.3666 3.35479L4.91452 9.00013L11.3666 14.6455C11.4197 14.692 11.4618 14.7471 11.4906 14.8079C11.5193 14.8686 11.5341 14.9337 11.5341 14.9994C11.5341 15.0652 11.5193 15.1303 11.4906 15.191C11.4618 15.2517 11.4197 15.3069 11.3666 15.3534C11.3135 15.3999 11.2504 15.4367 11.181 15.4619C11.1116 15.4871 11.0372 15.5 10.9621 15.5C10.887 15.5 10.8126 15.4871 10.7432 15.4619C10.6738 15.4367 10.6108 15.3999 10.5577 15.3534L3.70226 9.35409C3.64906 9.30765 3.60685 9.25248 3.57805 9.19174C3.54925 9.131 3.53442 9.06589 3.53442 9.00013C3.53442 8.93437 3.54925 8.86926 3.57805 8.80852C3.60685 8.74778 3.64906 8.69261 3.70226 8.64617L10.5577 2.64688C10.6107 2.60032 10.6738 2.56338 10.7432 2.53818C10.8126 2.51297 10.887 2.5 10.9621 2.5C11.0373 2.5 11.1117 2.51297 11.1811 2.53818C11.2505 2.56338 11.3135 2.60032 11.3666 2.64688Z" fill="#1F75FF"/>
</svg>
