<svg width="16" height="17" viewBox="0 0 16 17" fill="none" xmlns="http://www.w3.org/2000/svg">
<path fill-rule="evenodd" clip-rule="evenodd" d="M4.16784 14.8873C4.11463 14.8409 4.07242 14.7857 4.04362 14.725C4.01482 14.6642 4 14.5991 4 14.5333C4 14.4676 4.01482 14.4025 4.04362 14.3417C4.07242 14.281 4.11463 14.2258 4.16784 14.1794L10.6199 8.53405L4.16784 2.88871C4.11472 2.84223 4.07259 2.78705 4.04384 2.72631C4.01509 2.66558 4.0003 2.60049 4.0003 2.53475C4.0003 2.46902 4.01509 2.40392 4.04384 2.34319C4.07259 2.28246 4.11472 2.22728 4.16784 2.18079C4.22095 2.13431 4.28401 2.09744 4.35341 2.07228C4.42281 2.04713 4.49719 2.03418 4.5723 2.03418C4.64742 2.03418 4.7218 2.04713 4.7912 2.07228C4.8606 2.09744 4.92366 2.13431 4.97677 2.18079L11.8322 8.18009C11.8854 8.22653 11.9276 8.2817 11.9564 8.34244C11.9852 8.40318 12 8.46829 12 8.53405C12 8.59981 11.9852 8.66492 11.9564 8.72566C11.9276 8.7864 11.8854 8.84157 11.8322 8.88801L4.97677 14.8873C4.9237 14.9339 4.86066 14.9708 4.79126 14.996C4.72185 15.0212 4.64745 15.0342 4.5723 15.0342C4.49716 15.0342 4.42275 15.0212 4.35335 14.996C4.28394 14.9708 4.2209 14.9339 4.16784 14.8873Z" fill="#1F75FF"/>
</svg>
