<svg width="45" height="44" viewBox="0 0 45 44" fill="none" xmlns="http://www.w3.org/2000/svg">
<path d="M0.5 44L3.6082 32.7018C1.69063 29.3953 0.682232 25.6438 0.683442 21.8018C0.688471 9.7803 10.5164 0 22.5917 0C28.4525 0.00263466 33.9532 2.27326 38.089 6.39435C42.2257 10.5154 44.5024 15.9932 44.5 21.8188C44.495 33.8406 34.6665 43.6218 22.5926 43.6218H22.5829C18.9164 43.6206 15.3137 42.7044 12.114 40.9683L0.5 44Z" fill="url(#paint0_linear_2050_1739)"/>
<path fill-rule="evenodd" clip-rule="evenodd" d="M17.032 12.689C16.6219 11.7814 16.1902 11.7632 15.8001 11.7473C15.481 11.7337 15.1157 11.7345 14.7509 11.7345C14.3859 11.7345 13.7928 11.8711 13.2911 12.4165C12.7892 12.9619 11.3748 14.2803 11.3748 16.9617C11.3748 19.6435 13.3368 22.2347 13.6102 22.5986C13.884 22.962 17.3976 28.6406 22.9622 30.8252C27.5868 32.6408 28.5279 32.2796 29.5317 32.1888C30.5355 32.0979 32.7706 30.8707 33.2269 29.5979C33.6832 28.3254 33.6832 27.2347 33.5463 27.0067C33.4094 26.7796 33.0444 26.6433 32.4969 26.3708C31.9493 26.0982 29.2579 24.7795 28.756 24.5978C28.2541 24.4161 27.8891 24.3253 27.5241 24.8709C27.159 25.416 26.1104 26.6433 25.791 27.0067C25.4717 27.371 25.1523 27.4164 24.6047 27.1438C24.0572 26.8704 22.294 26.2955 20.2023 24.4388C18.5748 22.9943 17.476 21.2103 17.1566 20.6646C16.8372 20.1195 17.1224 19.8243 17.397 19.5526C17.6428 19.3084 17.9446 18.9163 18.2183 18.5981C18.4915 18.2798 18.5828 18.0527 18.7653 17.6893C18.9478 17.3253 18.8565 17.0071 18.7196 16.7345C18.5828 16.462 17.5188 13.7667 17.032 12.689Z" fill="white"/>
<path d="M38.089 6.39435C33.9532 2.27326 28.4525 0.00263466 22.5917 0C10.5164 0 0.688471 9.7803 0.683442 21.8018C0.682232 25.6438 1.69063 29.3953 3.6082 32.7018L0.5 44L12.114 40.9683C15.3137 42.7044 18.9164 43.6206 22.5829 43.6218H22.5926C34.6665 43.6218 44.495 33.8406 44.5 21.8188C44.5024 15.9932 42.2257 10.5154 38.089 6.39435ZM22.5921 39.9401H22.585C19.317 39.9384 16.1123 39.065 13.3171 37.4137L12.6518 37.0211L5.75998 38.82L7.59998 32.1329L7.16657 31.4474C5.34368 28.5619 4.38134 25.2273 4.38276 21.8033C4.38674 11.8115 12.5549 3.68263 22.599 3.68263C27.4629 3.68463 32.0343 5.57205 35.4725 8.9972C38.9104 12.4224 40.8023 16.9756 40.8009 21.8181C40.7966 31.8102 32.6282 39.9401 22.5921 39.9401Z" fill="white"/>
<defs>
<linearGradient id="paint0_linear_2050_1739" x1="22.5" y1="44" x2="22.5" y2="7.34328e-05" gradientUnits="userSpaceOnUse">
<stop stop-color="#20B038"/>
<stop offset="1" stop-color="#60D66A"/>
</linearGradient>
</defs>
</svg>
