<svg aria-hidden="true" style="position: absolute; width: 0; height: 0; overflow: hidden;" version="1.1" xmlns="http://www.w3.org/2000/svg" xmlns:xlink="http://www.w3.org/1999/xlink">
<defs>
<symbol id="icon-arrow-left-short" viewBox="0 0 32 32">
<path fill="#1f75ff" style="fill: var(--color1, #1f75ff)" d="M24 16.667c0 0.278-0.114 0.544-0.317 0.741s-0.479 0.307-0.766 0.307h-12.55l4.651 4.496c0.101 0.097 0.181 0.213 0.235 0.34s0.083 0.264 0.083 0.401-0.028 0.274-0.083 0.401c-0.054 0.127-0.134 0.243-0.235 0.34s-0.22 0.175-0.352 0.227c-0.132 0.053-0.273 0.080-0.415 0.080s-0.283-0.027-0.415-0.080c-0.132-0.053-0.251-0.13-0.352-0.227l-6.499-6.285c-0.101-0.097-0.181-0.213-0.236-0.34s-0.083-0.264-0.083-0.401 0.028-0.274 0.083-0.401c0.055-0.127 0.135-0.243 0.236-0.34l6.499-6.285c0.203-0.197 0.479-0.307 0.767-0.307s0.564 0.111 0.767 0.307c0.203 0.197 0.318 0.463 0.318 0.742s-0.114 0.545-0.318 0.742l-4.651 4.496h12.55c0.287 0 0.563 0.11 0.766 0.307s0.317 0.463 0.317 0.741z"></path>
</symbol>
<symbol id="icon-Flag-Germany" viewBox="0 0 32 32">
<path fill="#1d1c20" style="fill: var(--color2, #1d1c20)" d="M0 5.5h32v7h-32v-7z"></path>
<path fill="#f7341a" style="fill: var(--color3, #f7341a)" d="M0 12.5h32v7h-32v-7z"></path>
<path fill="#ffde59" style="fill: var(--color4, #ffde59)" d="M0 19.5h32v7h-32v-7z"></path>
</symbol>
<symbol id="icon-Flag-Ukraine" viewBox="0 0 32 32">
<path fill="#1f75ff" style="fill: var(--color1, #1f75ff)" d="M0 5.5h32v10.5h-32v-10.5z"></path>
<path fill="#ffde59" style="fill: var(--color4, #ffde59)" d="M0 16h32v10.5h-32v-10.5z"></path>
</symbol>
<symbol id="icon-GadgetTablet-1" viewBox="0 0 32 32">
<path fill="#000" style="fill: var(--color5, #000)" d="M0 32l2.26-8.217c-1.395-2.405-2.128-5.133-2.127-7.927 0.004-8.743 7.151-15.856 15.933-15.856 4.262 0.002 8.263 1.653 11.271 4.65s4.664 6.981 4.663 11.218c-0.004 8.743-7.152 15.857-15.933 15.857h-0.007c-2.667-0.001-5.287-0.667-7.614-1.93l-8.447 2.205z"></path>
<path fill="#fff" style="fill: var(--color6, #fff)" d="M12.023 9.228c-0.298-0.66-0.612-0.673-0.896-0.685-0.232-0.010-0.498-0.009-0.763-0.009s-0.697 0.099-1.062 0.496c-0.365 0.397-1.394 1.355-1.394 3.306s1.427 3.835 1.626 4.1c0.199 0.264 2.754 4.394 6.801 5.983 3.363 1.32 4.048 1.058 4.778 0.992s2.356-0.959 2.687-1.884c0.332-0.925 0.332-1.719 0.232-1.884s-0.365-0.264-0.763-0.462c-0.398-0.198-2.356-1.157-2.721-1.289s-0.63-0.198-0.896 0.199c-0.266 0.396-1.028 1.289-1.26 1.553s-0.465 0.298-0.863 0.1c-0.398-0.199-1.681-0.617-3.202-1.967-1.184-1.051-1.983-2.348-2.215-2.745s-0.025-0.611 0.175-0.809c0.179-0.178 0.398-0.463 0.597-0.694s0.265-0.397 0.398-0.661c0.133-0.265 0.066-0.496-0.033-0.694s-0.873-2.158-1.227-2.942z"></path>
<path fill="#fff" style="fill: var(--color6, #fff)" d="M27.337 4.65c-3.008-2.997-7.008-4.649-11.271-4.65-8.782 0-15.93 7.113-15.933 15.856-0.001 2.794 0.733 5.523 2.127 7.927l-2.26 8.217 8.447-2.205c2.327 1.263 4.947 1.929 7.614 1.93h0.007c8.781 0 15.929-7.114 15.933-15.857 0.002-4.237-1.654-8.221-4.663-11.218zM16.067 29.047h-0.005c-2.377-0.001-4.707-0.636-6.74-1.837l-0.484-0.286-5.012 1.308 1.338-4.863-0.315-0.499c-1.326-2.099-2.026-4.524-2.025-7.014 0.003-7.267 5.943-13.179 13.248-13.179 3.537 0.001 6.862 1.374 9.363 3.865s3.876 5.802 3.875 9.324c-0.003 7.267-5.944 13.18-13.243 13.18z"></path>
</symbol>
<symbol id="icon-GadgetTablet-2" viewBox="0 0 32 32">
<path fill="#1877f2" style="fill: var(--color7, #1877f2)" d="M32 16c0-8.836-7.163-16-16-16s-16 7.163-16 16c0 7.986 5.851 14.605 13.5 15.806v-11.181h-4.062v-4.625h4.062v-3.525c0-4.010 2.389-6.225 6.044-6.225 1.751 0 3.582 0.313 3.582 0.313v3.938h-2.018c-1.988 0-2.608 1.233-2.608 2.499v3.001h4.438l-0.709 4.625h-3.728v11.181c7.649-1.2 13.5-7.819 13.5-15.806z"></path>
<path fill="#fefefe" style="fill: var(--color8, #fefefe)" d="M22.228 20.625l0.709-4.625h-4.438v-3.001c0-1.265 0.62-2.499 2.607-2.499h2.018v-3.938c0 0-1.831-0.313-3.582-0.313-3.655 0-6.043 2.215-6.043 6.225v3.525h-4.062v4.625h4.062v11.181c0.827 0.13 1.663 0.195 2.5 0.194s1.673-0.065 2.5-0.194v-11.181h3.728z"></path>
</symbol>
<symbol id="icon-GadgetTablet-3" viewBox="0 0 32 32">
<path fill="#000" style="fill: var(--color5, #000)" d="M24.5 0h-17c-4.142 0-7.5 3.358-7.5 7.5v17c0 4.142 3.358 7.5 7.5 7.5h17c4.142 0 7.5-3.358 7.5-7.5v-17c0-4.142-3.358-7.5-7.5-7.5z"></path>
<path fill="#000" style="fill: var(--color5, #000)" d="M24.5 0h-17c-4.142 0-7.5 3.358-7.5 7.5v17c0 4.142 3.358 7.5 7.5 7.5h17c4.142 0 7.5-3.358 7.5-7.5v-17c0-4.142-3.358-7.5-7.5-7.5z"></path>
<path fill="#fefefe" style="fill: var(--color8, #fefefe)" d="M16.001 3.5c-3.395 0-3.821 0.015-5.154 0.075-1.331 0.061-2.239 0.272-3.034 0.581-0.822 0.319-1.52 0.746-2.214 1.441s-1.123 1.392-1.443 2.214c-0.31 0.795-0.521 1.704-0.581 3.034-0.060 1.333-0.075 1.76-0.075 5.155s0.015 3.82 0.075 5.153c0.061 1.331 0.272 2.239 0.581 3.034 0.319 0.822 0.747 1.52 1.442 2.214s1.392 1.123 2.214 1.443c0.795 0.309 1.704 0.52 3.034 0.581 1.333 0.061 1.759 0.076 5.154 0.076s3.82-0.015 5.153-0.076c1.331-0.061 2.24-0.272 3.035-0.581 0.822-0.319 1.518-0.747 2.213-1.443s1.122-1.392 1.443-2.214c0.307-0.795 0.518-1.704 0.581-3.034 0.060-1.333 0.076-1.758 0.076-5.153s-0.016-3.821-0.076-5.154c-0.063-1.331-0.274-2.239-0.581-3.034-0.32-0.822-0.747-1.52-1.443-2.215s-1.391-1.122-2.214-1.441c-0.797-0.309-1.706-0.52-3.037-0.581-1.333-0.061-1.758-0.075-5.154-0.075h0.004zM14.88 5.753c0.333-0 0.704 0 1.121 0 3.338 0 3.733 0.012 5.051 0.072 1.219 0.056 1.88 0.259 2.321 0.431 0.583 0.226 0.999 0.497 1.436 0.935s0.708 0.854 0.935 1.438c0.171 0.44 0.375 1.102 0.43 2.32 0.060 1.318 0.073 1.713 0.073 5.049s-0.013 3.732-0.073 5.050c-0.056 1.219-0.259 1.88-0.43 2.32-0.227 0.583-0.498 0.999-0.935 1.436s-0.853 0.708-1.436 0.935c-0.44 0.172-1.102 0.375-2.321 0.431-1.318 0.060-1.713 0.073-5.051 0.073s-3.733-0.013-5.051-0.073c-1.219-0.056-1.88-0.26-2.321-0.431-0.583-0.227-1-0.497-1.438-0.935s-0.708-0.853-0.935-1.437c-0.171-0.44-0.375-1.102-0.431-2.32-0.060-1.318-0.072-1.714-0.072-5.052s0.012-3.732 0.072-5.049c0.056-1.219 0.259-1.88 0.431-2.321 0.227-0.583 0.498-1 0.936-1.438s0.854-0.708 1.438-0.935c0.441-0.172 1.102-0.375 2.321-0.431 1.153-0.052 1.6-0.068 3.93-0.070v0.003zM22.674 7.828c-0.828 0-1.5 0.671-1.5 1.5s0.672 1.5 1.5 1.5c0.828 0 1.5-0.672 1.5-1.5s-0.672-1.5-1.5-1.5zM16.001 9.581c-3.545 0-6.419 2.874-6.419 6.419s2.874 6.418 6.419 6.418c3.545 0 6.418-2.873 6.418-6.418s-2.873-6.419-6.418-6.419zM16.001 11.833c2.301 0 4.167 1.865 4.167 4.167s-1.866 4.167-4.167 4.167c-2.301 0-4.167-1.866-4.167-4.167s1.865-4.167 4.167-4.167z"></path>
</symbol>
<symbol id="icon-GadgetTablet" viewBox="0 0 32 32">
<path fill="#595bd4" style="fill: var(--color9, #595bd4)" d="M16.001 0c2.899 0.001 5.743 0.789 8.228 2.279s4.52 3.627 5.885 6.182 2.010 5.433 1.866 8.326c-0.144 2.893-0.829 5.331-2.684 8.1-1.296 1.935-2.27 2.924-4.186 4.249-3.623 2.507-7.088 3.182-10.948 2.735s-7.427-2.283-10.032-5.165c-2.606-2.882-4.073-6.613-4.128-10.496s0.969-7.258 3.829-10.608c1.622-1.9 2.803-2.827 5.041-3.938 2.56-1.272 4.655-1.672 7.129-1.664zM16.001 1.018c-2.315-0.008-4.275 0.368-6.671 1.557-2.097 1.041-3.205 1.909-4.725 3.689-2.679 3.138-3.639 6.297-3.588 9.934s1.425 7.131 3.865 9.83 5.78 4.418 9.395 4.837c3.616 0.418 6.86-0.214 10.253-2.563 1.795-1.243 2.707-2.17 3.921-3.984 1.735-2.593 2.376-4.875 2.51-7.584s-0.47-5.403-1.748-7.795c-1.278-2.392-3.182-4.393-5.509-5.788s-4.989-2.133-7.703-2.134z"></path>
<path fill="#595bd4" style="fill: var(--color9, #595bd4)" d="M26.694 9.185h-0.051v13.617c0.002 0.037 0.002 0.075 0 0.112 0.004 0.029 0.004 0.058 0 0.087-0.008 0.016-0.019 0.032-0.031 0.046-0.024 0.042-0.053 0.081-0.087 0.117l-0.051 0.036c-0.034 0.023-0.070 0.044-0.107 0.061-0.034 0.005-0.068 0.005-0.102 0-0.027 0.002-0.054 0.002-0.081 0h-20.317c-0.027 0.002-0.054 0.002-0.081 0-0.034 0.005-0.068 0.005-0.102 0-0.037-0.017-0.073-0.038-0.107-0.061l-0.051-0.036c-0.033-0.036-0.062-0.075-0.087-0.117-0.012-0.014-0.022-0.029-0.031-0.046-0.004-0.029-0.004-0.058 0-0.087-0.011-0.037-0.019-0.074-0.025-0.112v-13.617c-0.003-0.025-0.003-0.051 0-0.076-0.002-0.036-0.002-0.071 0-0.107 0.020-0.041 0.043-0.081 0.071-0.117 0.008-0.016 0.019-0.032 0.031-0.046 0.039-0.041 0.086-0.073 0.137-0.097 0.040-0.018 0.083-0.028 0.127-0.031h20.577c0.044 0.002 0.087 0.013 0.127 0.031 0.052 0.023 0.098 0.056 0.137 0.097 0.012 0.014 0.022 0.029 0.031 0.046 0.028 0.036 0.052 0.076 0.071 0.117 0.002 0.036 0.002 0.071 0 0.107 0.003 0.025 0.003 0.051 0 0.076zM11.836 15.479l-5.51-5.129v11.129l5.51-5.999zM16.001 16.602c0.918 0 1.802-0.346 2.475-0.97l6.411-5.938h-17.771l6.411 5.938c0.673 0.623 1.557 0.97 2.475 0.97zM12.834 16.375l-0.25-0.234-5.611 6.111h18.046l-5.601-6.106-0.25 0.229c-0.862 0.797-1.993 1.239-3.167 1.239s-2.305-0.443-3.167-1.239zM25.676 10.35l-5.51 5.129 5.51 5.999v-11.129z"></path>
<path fill="#fbfbfb" style="fill: var(--color10, #fbfbfb)" d="M20.166 15.479l5.51-5.129v11.129l-5.51-5.999z"></path>
<path fill="#fbfbfb" style="fill: var(--color10, #fbfbfb)" d="M18.476 15.632c-0.673 0.623-1.557 0.97-2.475 0.97s-1.802-0.346-2.475-0.97l-6.411-5.938h17.771l-6.411 5.938z"></path>
<path fill="#fbfbfb" style="fill: var(--color10, #fbfbfb)" d="M12.584 16.141l0.25 0.234c0.862 0.797 1.993 1.239 3.167 1.239s2.305-0.443 3.167-1.239l0.25-0.229 5.601 6.106h-18.046l5.611-6.111z"></path>
<path fill="#fbfbfb" style="fill: var(--color10, #fbfbfb)" d="M6.326 10.35l5.51 5.129-5.51 5.999v-11.129z"></path>
<path fill="#595bd4" style="fill: var(--color9, #595bd4)" d="M9.331 2.575c-2.097 1.041-3.205 1.909-4.725 3.689-2.679 3.138-3.639 6.297-3.588 9.934s1.425 7.131 3.865 9.83 5.78 4.418 9.395 4.837c3.616 0.418 6.86-0.214 10.253-2.563 1.795-1.243 2.707-2.17 3.921-3.984 1.735-2.593 2.376-4.875 2.51-7.584s-0.47-5.403-1.748-7.795c-1.278-2.392-3.182-4.393-5.509-5.788s-4.989-2.133-7.703-2.134c-2.315-0.008-4.275 0.368-6.671 1.557zM26.694 9.108c0.003 0.025 0.003 0.051 0 0.076h-0.051v13.617c0.002 0.037 0.002 0.075 0 0.112 0.004 0.029 0.004 0.058 0 0.087-0.008 0.016-0.019 0.032-0.031 0.046-0.024 0.042-0.053 0.081-0.087 0.117l-0.051 0.036c-0.034 0.023-0.070 0.044-0.107 0.061-0.034 0.005-0.068 0.005-0.102 0-0.027 0.002-0.054 0.002-0.081 0h-20.317c-0.027 0.002-0.054 0.002-0.081 0-0.034 0.005-0.068 0.005-0.102 0-0.037-0.017-0.073-0.038-0.107-0.061l-0.051-0.036c-0.033-0.036-0.062-0.075-0.087-0.117-0.012-0.014-0.022-0.029-0.031-0.046-0.004-0.029-0.004-0.058 0-0.087-0.011-0.037-0.019-0.074-0.025-0.112v-13.617c-0.003-0.025-0.003-0.051 0-0.076-0.002-0.036-0.002-0.071 0-0.107 0.020-0.041 0.043-0.081 0.071-0.117 0.008-0.016 0.019-0.032 0.031-0.046 0.039-0.041 0.086-0.073 0.137-0.097 0.040-0.018 0.083-0.028 0.127-0.031h20.577c0.044 0.002 0.087 0.013 0.127 0.031 0.052 0.023 0.098 0.056 0.137 0.097 0.012 0.014 0.022 0.029 0.031 0.046 0.028 0.036 0.052 0.076 0.071 0.117 0.002 0.036 0.002 0.071 0 0.107z"></path>
</symbol>
<symbol id="icon-arrow-down" viewBox="0 0 32 32">
<path fill="#1f75ff" style="fill: var(--color1, #1f75ff)" d="M15.333 8c0.278 0 0.544 0.114 0.741 0.317s0.307 0.479 0.307 0.766v12.55l4.496-4.651c0.097-0.101 0.213-0.181 0.34-0.235s0.264-0.083 0.401-0.083 0.274 0.028 0.401 0.083c0.127 0.054 0.243 0.134 0.34 0.235s0.175 0.22 0.227 0.352c0.053 0.132 0.080 0.273 0.080 0.415s-0.027 0.283-0.080 0.415c-0.053 0.132-0.13 0.251-0.227 0.352l-6.285 6.499c-0.097 0.101-0.213 0.181-0.34 0.236s-0.264 0.083-0.401 0.083-0.274-0.028-0.401-0.083c-0.127-0.055-0.243-0.135-0.34-0.236l-6.285-6.499c-0.097-0.101-0.175-0.22-0.227-0.352s-0.080-0.273-0.080-0.415c0-0.142 0.027-0.283 0.080-0.415s0.13-0.251 0.227-0.352c0.197-0.203 0.463-0.318 0.742-0.318 0.138 0 0.274 0.028 0.401 0.083s0.243 0.134 0.34 0.235l4.496 4.651v-12.55c0-0.287 0.11-0.563 0.307-0.766s0.463-0.317 0.741-0.317z"></path>
</symbol>
<symbol id="icon-arrow-up" viewBox="0 0 32 32">
<path fill="#1f75ff" style="fill: var(--color1, #1f75ff)" d="M15.333 25.333c0.278 0 0.544-0.114 0.741-0.317s0.307-0.479 0.307-0.766v-12.55l4.496 4.651c0.097 0.101 0.213 0.181 0.34 0.235s0.264 0.083 0.401 0.083 0.274-0.028 0.401-0.083c0.127-0.054 0.243-0.134 0.34-0.235s0.175-0.22 0.227-0.352c0.053-0.132 0.080-0.273 0.080-0.415s-0.027-0.283-0.080-0.415c-0.053-0.132-0.13-0.251-0.227-0.352l-6.285-6.499c-0.097-0.101-0.213-0.181-0.34-0.236s-0.264-0.083-0.401-0.083-0.274 0.028-0.401 0.083c-0.127 0.055-0.243 0.135-0.34 0.236l-6.285 6.499c-0.197 0.203-0.307 0.479-0.307 0.767s0.111 0.564 0.307 0.767c0.197 0.203 0.463 0.318 0.742 0.318s0.545-0.114 0.742-0.318l4.496-4.651v12.55c0 0.287 0.11 0.563 0.307 0.766s0.463 0.317 0.741 0.317z"></path>
</symbol>
<symbol id="icon-arrow" viewBox="0 0 32 32">
<path d="M28 5c0-0.265-0.105-0.52-0.293-0.707s-0.442-0.293-0.707-0.293h-12c-0.265 0-0.52 0.105-0.707 0.293s-0.293 0.442-0.293 0.707 0.105 0.52 0.293 0.707c0.187 0.188 0.442 0.293 0.707 0.293h9.586l-20.294 20.292c-0.093 0.093-0.167 0.203-0.217 0.325s-0.076 0.252-0.076 0.383c0 0.131 0.026 0.262 0.076 0.383s0.124 0.232 0.217 0.325c0.093 0.093 0.203 0.167 0.325 0.217s0.252 0.076 0.383 0.076 0.262-0.026 0.383-0.076c0.121-0.050 0.232-0.124 0.325-0.217l20.292-20.294v9.586c0 0.265 0.105 0.52 0.293 0.707s0.442 0.293 0.707 0.293 0.52-0.105 0.707-0.293c0.188-0.187 0.293-0.442 0.293-0.707v-12z"></path>
</symbol>
<symbol id="icon-chat" viewBox="0 0 32 32">
<path d="M28 2c0.53 0 1.039 0.211 1.414 0.586s0.586 0.884 0.586 1.414v16c0 0.53-0.211 1.039-0.586 1.414s-0.884 0.586-1.414 0.586h-5c-0.621 0-1.233 0.145-1.789 0.422s-1.039 0.681-1.411 1.178l-3.8 5.066-3.8-5.066c-0.373-0.497-0.856-0.9-1.411-1.178s-1.168-0.422-1.789-0.422h-5c-0.53 0-1.039-0.211-1.414-0.586s-0.586-0.884-0.586-1.414v-16c0-0.53 0.211-1.039 0.586-1.414s0.884-0.586 1.414-0.586h24zM4 0c-1.061 0-2.078 0.421-2.828 1.172s-1.172 1.768-1.172 2.828v16c0 1.061 0.421 2.078 1.172 2.828s1.768 1.172 2.828 1.172h5c0.31 0 0.617 0.072 0.894 0.211s0.519 0.34 0.706 0.589l3.8 5.066c0.186 0.248 0.428 0.45 0.706 0.589s0.584 0.211 0.894 0.211 0.617-0.072 0.894-0.211c0.278-0.139 0.519-0.34 0.706-0.589l3.8-5.066c0.186-0.248 0.428-0.45 0.706-0.589s0.584-0.211 0.894-0.211h5c1.061 0 2.078-0.421 2.828-1.172s1.172-1.768 1.172-2.828v-16c0-1.061-0.421-2.078-1.172-2.828s-1.767-1.172-2.828-1.172h-24z"></path>
<path d="M6 7c0-0.265 0.105-0.52 0.293-0.707s0.442-0.293 0.707-0.293h18c0.265 0 0.52 0.105 0.707 0.293s0.293 0.442 0.293 0.707-0.105 0.52-0.293 0.707c-0.187 0.188-0.442 0.293-0.707 0.293h-18c-0.265 0-0.52-0.105-0.707-0.293s-0.293-0.442-0.293-0.707zM6 12c0-0.265 0.105-0.52 0.293-0.707s0.442-0.293 0.707-0.293h18c0.265 0 0.52 0.105 0.707 0.293s0.293 0.442 0.293 0.707-0.105 0.52-0.293 0.707c-0.187 0.188-0.442 0.293-0.707 0.293h-18c-0.265 0-0.52-0.105-0.707-0.293s-0.293-0.442-0.293-0.707zM6 17c0-0.265 0.105-0.52 0.293-0.707s0.442-0.293 0.707-0.293h10c0.265 0 0.52 0.105 0.707 0.293s0.293 0.442 0.293 0.707-0.105 0.52-0.293 0.707c-0.187 0.188-0.442 0.293-0.707 0.293h-10c-0.265 0-0.52-0.105-0.707-0.293s-0.293-0.442-0.293-0.707z"></path>
</symbol>
<symbol id="icon-chevron-bar-Max" viewBox="0 0 32 32">
<path fill="#1f75ff" style="fill: var(--color1, #1f75ff)" d="M3.102 8.47c0.138-0.149 0.301-0.267 0.481-0.348s0.373-0.122 0.568-0.122c0.195 0 0.388 0.041 0.568 0.122s0.343 0.199 0.481 0.348l10.801 11.666 10.801-11.666c0.278-0.3 0.655-0.469 1.049-0.469s0.771 0.169 1.049 0.469c0.278 0.3 0.434 0.708 0.434 1.132s-0.156 0.832-0.434 1.132l-11.85 12.795c-0.138 0.149-0.301 0.267-0.481 0.348s-0.373 0.122-0.568 0.122-0.388-0.041-0.568-0.122c-0.18-0.081-0.343-0.199-0.481-0.348l-11.85-12.795c-0.138-0.149-0.247-0.325-0.322-0.519s-0.113-0.403-0.113-0.613c0-0.21 0.038-0.419 0.113-0.613s0.184-0.371 0.322-0.519z"></path>
</symbol>
<symbol id="icon-chevron-bar" viewBox="0 0 32 32">
<path fill="#1f75ff" style="fill: var(--color1, #1f75ff)" d="M6.971 10.98c0.096-0.099 0.211-0.178 0.337-0.232s0.261-0.081 0.397-0.081c0.136 0 0.271 0.028 0.397 0.081s0.24 0.133 0.337 0.232l7.561 7.778 7.561-7.778c0.195-0.2 0.459-0.313 0.734-0.313s0.539 0.112 0.734 0.313c0.195 0.2 0.304 0.472 0.304 0.755s-0.109 0.555-0.304 0.755l-8.295 8.53c-0.096 0.099-0.211 0.178-0.337 0.232s-0.261 0.081-0.397 0.081-0.271-0.028-0.397-0.081c-0.126-0.054-0.24-0.133-0.337-0.232l-8.295-8.53c-0.097-0.099-0.173-0.217-0.225-0.346s-0.079-0.268-0.079-0.409c0-0.14 0.027-0.279 0.079-0.409s0.129-0.247 0.225-0.346z"></path>
</symbol>
<symbol id="icon-clipboard-check-Max" viewBox="0 0 32 32">
<path fill="#074bb9" style="fill: var(--color12, #074bb9)" d="M7.619 3h-2.095c-1.111 0-2.177 0.421-2.963 1.172s-1.227 1.768-1.227 2.828v21c0 1.061 0.442 2.078 1.227 2.828s1.852 1.172 2.963 1.172h20.952c1.111 0 2.177-0.421 2.963-1.172s1.227-1.768 1.227-2.828v-21c0-1.061-0.441-2.078-1.227-2.828s-1.852-1.172-2.963-1.172h-2.095v2h2.095c0.556 0 1.089 0.211 1.482 0.586s0.614 0.884 0.614 1.414v21c0 0.53-0.221 1.039-0.614 1.414s-0.926 0.586-1.482 0.586h-20.952c-0.556 0-1.089-0.211-1.482-0.586s-0.614-0.884-0.614-1.414v-21c0-0.53 0.221-1.039 0.614-1.414s0.926-0.586 1.482-0.586h2.095v-2z"></path>
<path fill="#074bb9" style="fill: var(--color12, #074bb9)" d="M19.143 2c0.278 0 0.544 0.105 0.741 0.293s0.307 0.442 0.307 0.707v2c0 0.265-0.11 0.52-0.307 0.707s-0.463 0.293-0.741 0.293h-6.286c-0.278 0-0.544-0.105-0.741-0.293s-0.307-0.442-0.307-0.707v-2c0-0.265 0.11-0.52 0.307-0.707s0.463-0.293 0.741-0.293h6.286zM12.857 0c-0.834 0-1.633 0.316-2.222 0.879s-0.921 1.326-0.921 2.121v2c0 0.796 0.331 1.559 0.921 2.121s1.389 0.879 2.222 0.879h6.286c0.834 0 1.633-0.316 2.222-0.879s0.921-1.326 0.921-2.121v-2c0-0.796-0.331-1.559-0.921-2.121s-1.389-0.879-2.222-0.879h-6.286zM21.98 14.292c0.098 0.093 0.175 0.203 0.228 0.325s0.080 0.252 0.080 0.383c0 0.132-0.027 0.262-0.080 0.383s-0.13 0.232-0.228 0.325l-6.286 6c-0.097 0.093-0.213 0.167-0.34 0.217s-0.264 0.076-0.402 0.076-0.274-0.026-0.402-0.076c-0.127-0.050-0.243-0.124-0.34-0.217l-3.143-3c-0.097-0.093-0.175-0.203-0.227-0.325s-0.080-0.252-0.080-0.383 0.027-0.262 0.080-0.383c0.053-0.121 0.13-0.232 0.227-0.325 0.197-0.188 0.464-0.293 0.742-0.293 0.138 0 0.274 0.026 0.401 0.076s0.243 0.124 0.34 0.217l2.401 2.294 5.544-5.294c0.097-0.093 0.213-0.167 0.34-0.217s0.264-0.076 0.401-0.076 0.274 0.026 0.402 0.076c0.127 0.050 0.243 0.124 0.34 0.217z"></path>
</symbol>
<symbol id="icon-clipboard-check" viewBox="0 0 32 32">
<path fill="#074bb9" style="fill: var(--color12, #074bb9)" d="M8.667 3h-2c-1.061 0-2.078 0.421-2.828 1.172s-1.172 1.768-1.172 2.828v21c0 1.061 0.421 2.078 1.172 2.828s1.768 1.172 2.828 1.172h20c1.061 0 2.078-0.421 2.828-1.172s1.172-1.767 1.172-2.828v-21c0-1.061-0.421-2.078-1.172-2.828s-1.767-1.172-2.828-1.172h-2v2h2c0.53 0 1.039 0.211 1.414 0.586s0.586 0.884 0.586 1.414v21c0 0.53-0.211 1.039-0.586 1.414s-0.884 0.586-1.414 0.586h-20c-0.53 0-1.039-0.211-1.414-0.586s-0.586-0.884-0.586-1.414v-21c0-0.53 0.211-1.039 0.586-1.414s0.884-0.586 1.414-0.586h2v-2z"></path>
<path fill="#074bb9" style="fill: var(--color12, #074bb9)" d="M19.667 2c0.265 0 0.52 0.105 0.707 0.293s0.293 0.442 0.293 0.707v2c0 0.265-0.105 0.52-0.293 0.707s-0.442 0.293-0.707 0.293h-6c-0.265 0-0.52-0.105-0.707-0.293s-0.293-0.442-0.293-0.707v-2c0-0.265 0.105-0.52 0.293-0.707s0.442-0.293 0.707-0.293h6zM13.667 0c-0.796 0-1.559 0.316-2.121 0.879s-0.879 1.326-0.879 2.121v2c0 0.796 0.316 1.559 0.879 2.121s1.326 0.879 2.121 0.879h6c0.796 0 1.559-0.316 2.121-0.879s0.879-1.326 0.879-2.121v-2c0-0.796-0.316-1.559-0.879-2.121s-1.326-0.879-2.121-0.879h-6zM22.375 14.292c0.093 0.093 0.167 0.203 0.217 0.325s0.076 0.252 0.076 0.383-0.026 0.262-0.076 0.383c-0.050 0.121-0.124 0.232-0.217 0.325l-6 6c-0.093 0.093-0.203 0.167-0.325 0.217s-0.252 0.076-0.383 0.076-0.262-0.026-0.383-0.076c-0.122-0.050-0.232-0.124-0.325-0.217l-3-3c-0.093-0.093-0.167-0.203-0.217-0.325s-0.076-0.252-0.076-0.383c0-0.131 0.026-0.262 0.076-0.383s0.124-0.232 0.217-0.325c0.188-0.188 0.442-0.293 0.708-0.293 0.132 0 0.262 0.026 0.383 0.076s0.232 0.124 0.325 0.217l2.292 2.294 5.292-5.294c0.093-0.093 0.203-0.167 0.325-0.217s0.252-0.076 0.383-0.076c0.132 0 0.262 0.026 0.383 0.076s0.232 0.124 0.325 0.217z"></path>
</symbol>
<symbol id="icon-close-Max" viewBox="0 0 32 32">
<path fill="#301678" style="fill: var(--color11, #301678)" d="M16 19.407l-11.924 11.924c-0.446 0.446-1.014 0.669-1.703 0.669s-1.257-0.223-1.703-0.669c-0.446-0.446-0.669-1.014-0.669-1.703s0.223-1.257 0.669-1.703l11.924-11.924-11.924-11.924c-0.446-0.446-0.669-1.014-0.669-1.703s0.223-1.257 0.669-1.703c0.446-0.446 1.014-0.669 1.703-0.669s1.257 0.223 1.703 0.669l11.924 11.924 11.924-11.924c0.446-0.446 1.014-0.669 1.703-0.669s1.257 0.223 1.703 0.669c0.446 0.446 0.669 1.014 0.669 1.703s-0.223 1.257-0.669 1.703l-11.924 11.924 11.924 11.924c0.446 0.446 0.669 1.014 0.669 1.703s-0.223 1.257-0.669 1.703c-0.446 0.446-1.014 0.669-1.703 0.669s-1.257-0.223-1.703-0.669l-11.924-11.924z"></path>
</symbol>
<symbol id="icon-close" viewBox="0 0 32 32">
<path fill="#301678" style="fill: var(--color11, #301678)" d="M15.333 18.512l-6.459 6.459c-0.242 0.242-0.549 0.363-0.923 0.363s-0.681-0.121-0.923-0.363c-0.242-0.242-0.362-0.549-0.362-0.923s0.121-0.681 0.362-0.923l6.459-6.459-6.459-6.459c-0.242-0.242-0.362-0.549-0.362-0.923s0.121-0.681 0.362-0.923c0.242-0.242 0.549-0.362 0.923-0.362s0.681 0.121 0.923 0.362l6.459 6.459 6.459-6.459c0.242-0.242 0.549-0.362 0.923-0.362s0.681 0.121 0.923 0.362c0.242 0.242 0.363 0.549 0.363 0.923s-0.121 0.681-0.363 0.923l-6.459 6.459 6.459 6.459c0.242 0.242 0.363 0.549 0.363 0.923s-0.121 0.681-0.363 0.923c-0.242 0.242-0.549 0.363-0.923 0.363s-0.681-0.121-0.923-0.363l-6.459-6.459z"></path>
</symbol>
<symbol id="icon-Ellipse-1" viewBox="0 0 32 32">
<path fill="#1f75ff" style="fill: var(--color1, #1f75ff)" d="M32 16c0 8.837-7.163 16-16 16s-16-7.163-16-16c0-8.837 7.163-16 16-16s16 7.163 16 16z"></path>
</symbol>
<symbol id="icon-Ellipse" viewBox="0 0 32 32">
<path fill="#1f75ff" style="fill: var(--color1, #1f75ff)" d="M32 16c0 8.837-7.163 16-16 16s-16-7.163-16-16c0-8.837 7.163-16 16-16s16 7.163 16 16z"></path>
</symbol>
<symbol id="icon-file-text" viewBox="0 0 32 32">
<path d="M8 0h16c1.061 0 2.078 0.421 2.828 1.172s1.172 1.768 1.172 2.828v24c0 1.061-0.421 2.078-1.172 2.828s-1.768 1.172-2.828 1.172h-16c-1.061 0-2.078-0.421-2.828-1.172s-1.172-1.767-1.172-2.828v-24c0-1.061 0.421-2.078 1.172-2.828s1.768-1.172 2.828-1.172zM8 2c-0.53 0-1.039 0.211-1.414 0.586s-0.586 0.884-0.586 1.414v24c0 0.53 0.211 1.039 0.586 1.414s0.884 0.586 1.414 0.586h16c0.53 0 1.039-0.211 1.414-0.586s0.586-0.884 0.586-1.414v-24c0-0.53-0.211-1.039-0.586-1.414s-0.884-0.586-1.414-0.586h-16z"></path>
<path d="M9 21c0-0.265 0.105-0.52 0.293-0.707s0.442-0.293 0.707-0.293h6c0.265 0 0.52 0.105 0.707 0.293s0.293 0.442 0.293 0.707-0.105 0.52-0.293 0.707c-0.187 0.188-0.442 0.293-0.707 0.293h-6c-0.265 0-0.52-0.105-0.707-0.293s-0.293-0.442-0.293-0.707zM9 17c0-0.265 0.105-0.52 0.293-0.707s0.442-0.293 0.707-0.293h12c0.265 0 0.52 0.105 0.707 0.293s0.293 0.442 0.293 0.707-0.105 0.52-0.293 0.707c-0.187 0.188-0.442 0.293-0.707 0.293h-12c-0.265 0-0.52-0.105-0.707-0.293s-0.293-0.442-0.293-0.707zM9 13c0-0.265 0.105-0.52 0.293-0.707s0.442-0.293 0.707-0.293h12c0.265 0 0.52 0.105 0.707 0.293s0.293 0.442 0.293 0.707-0.105 0.52-0.293 0.707c-0.187 0.188-0.442 0.293-0.707 0.293h-12c-0.265 0-0.52-0.105-0.707-0.293s-0.293-0.442-0.293-0.707zM9 9c0-0.265 0.105-0.52 0.293-0.707s0.442-0.293 0.707-0.293h12c0.265 0 0.52 0.105 0.707 0.293s0.293 0.442 0.293 0.707-0.105 0.52-0.293 0.707c-0.187 0.188-0.442 0.293-0.707 0.293h-12c-0.265 0-0.52-0.105-0.707-0.293s-0.293-0.442-0.293-0.707z"></path>
</symbol>
<symbol id="icon-geo-alt-Max" viewBox="0 0 32 32">
<path fill="#301678" style="fill: var(--color11, #301678)" d="M24.332 17.88c-1.048 2.124-2.468 4.24-3.92 6.14-1.254 1.631-2.588 3.2-3.996 4.7l-0.416 0.44c-1.562-1.633-3.035-3.349-4.412-5.14-1.452-1.9-2.872-4.016-3.92-6.14-1.058-2.146-1.668-4.156-1.668-5.88 0-2.652 1.054-5.196 2.929-7.071s4.419-2.929 7.071-2.929c2.652 0 5.196 1.054 7.071 2.929s2.929 4.419 2.929 7.071c0 1.724-0.608 3.734-1.668 5.88zM16 32c0 0 12-11.372 12-20 0-3.183-1.264-6.235-3.515-8.485s-5.303-3.515-8.485-3.515-6.235 1.264-8.485 3.515c-2.25 2.25-3.515 5.303-3.515 8.485 0 8.628 12 20 12 20z"></path>
<path fill="#301678" style="fill: var(--color11, #301678)" d="M16 16c-1.061 0-2.078-0.421-2.828-1.172s-1.172-1.768-1.172-2.828 0.421-2.078 1.172-2.828c0.75-0.75 1.768-1.172 2.828-1.172s2.078 0.421 2.828 1.172c0.75 0.75 1.172 1.768 1.172 2.828s-0.421 2.078-1.172 2.828c-0.75 0.75-1.767 1.172-2.828 1.172zM16 18c1.591 0 3.117-0.632 4.243-1.757s1.757-2.651 1.757-4.243-0.632-3.117-1.757-4.243c-1.125-1.125-2.651-1.757-4.243-1.757s-3.117 0.632-4.243 1.757c-1.125 1.125-1.757 2.651-1.757 4.243s0.632 3.117 1.757 4.243c1.125 1.125 2.651 1.757 4.243 1.757z"></path>
</symbol>
<symbol id="icon-geo-alt" viewBox="0 0 32 32">
<path fill="#301678" style="fill: var(--color11, #301678)" d="M24.332 17.88c-1.048 2.124-2.468 4.24-3.92 6.14-1.254 1.631-2.588 3.2-3.996 4.7l-0.416 0.44c-1.562-1.633-3.035-3.349-4.412-5.14-1.452-1.9-2.872-4.016-3.92-6.14-1.058-2.146-1.668-4.156-1.668-5.88 0-2.652 1.054-5.196 2.929-7.071s4.419-2.929 7.071-2.929c2.652 0 5.196 1.054 7.071 2.929s2.929 4.419 2.929 7.071c0 1.724-0.608 3.734-1.668 5.88zM16 32c0 0 12-11.372 12-20 0-3.183-1.264-6.235-3.515-8.485s-5.303-3.515-8.485-3.515c-3.183 0-6.235 1.264-8.485 3.515s-3.515 5.303-3.515 8.485c0 8.628 12 20 12 20z"></path>
<path fill="#301678" style="fill: var(--color11, #301678)" d="M16 16c-1.061 0-2.078-0.421-2.828-1.172s-1.172-1.768-1.172-2.828c0-1.061 0.421-2.078 1.172-2.828s1.768-1.172 2.828-1.172c1.061 0 2.078 0.421 2.828 1.172s1.172 1.768 1.172 2.828c0 1.061-0.421 2.078-1.172 2.828s-1.768 1.172-2.828 1.172zM16 18c1.591 0 3.117-0.632 4.243-1.757s1.757-2.651 1.757-4.243c0-1.591-0.632-3.117-1.757-4.243s-2.651-1.757-4.243-1.757c-1.591 0-3.117 0.632-4.243 1.757s-1.757 2.651-1.757 4.243c0 1.591 0.632 3.117 1.757 4.243s2.651 1.757 4.243 1.757z"></path>
</symbol>
<symbol id="icon-info-square-Max" viewBox="0 0 32 32">
<path fill="#074bb9" style="fill: var(--color12, #074bb9)" d="M28 2c0.53 0 1.039 0.211 1.414 0.586s0.586 0.884 0.586 1.414v24c0 0.53-0.211 1.039-0.586 1.414s-0.884 0.586-1.414 0.586h-24c-0.53 0-1.039-0.211-1.414-0.586s-0.586-0.884-0.586-1.414v-24c0-0.53 0.211-1.039 0.586-1.414s0.884-0.586 1.414-0.586h24zM4 0c-1.061 0-2.078 0.421-2.828 1.172s-1.172 1.768-1.172 2.828v24c0 1.061 0.421 2.078 1.172 2.828s1.768 1.172 2.828 1.172h24c1.061 0 2.078-0.421 2.828-1.172s1.172-1.768 1.172-2.828v-24c0-1.061-0.421-2.078-1.172-2.828s-1.768-1.172-2.828-1.172h-24z"></path>
<path fill="#074bb9" style="fill: var(--color12, #074bb9)" d="M17.86 13.176l-4.58 0.574-0.164 0.76 0.9 0.166c0.588 0.14 0.704 0.352 0.576 0.938l-1.476 6.936c-0.388 1.794 0.21 2.638 1.616 2.638 1.090 0 2.356-0.504 2.93-1.196l0.176-0.832c-0.4 0.352-0.984 0.492-1.372 0.492-0.55 0-0.75-0.386-0.608-1.066l2.002-9.41z"></path>
<path fill="#074bb9" style="fill: var(--color12, #074bb9)" d="M16 11c1.105 0 2-0.895 2-2s-0.895-2-2-2c-1.105 0-2 0.895-2 2s0.895 2 2 2z"></path>
</symbol>
<symbol id="icon-Icon-info-square" viewBox="0 0 32 32">
<path fill="#074bb9" style="fill: var(--color12, #074bb9)" d="M28 2c0.53 0 1.039 0.211 1.414 0.586s0.586 0.884 0.586 1.414v24c0 0.53-0.211 1.039-0.586 1.414s-0.884 0.586-1.414 0.586h-24c-0.53 0-1.039-0.211-1.414-0.586s-0.586-0.884-0.586-1.414v-24c0-0.53 0.211-1.039 0.586-1.414s0.884-0.586 1.414-0.586h24zM4 0c-1.061 0-2.078 0.421-2.828 1.172s-1.172 1.768-1.172 2.828v24c0 1.061 0.421 2.078 1.172 2.828s1.768 1.172 2.828 1.172h24c1.061 0 2.078-0.421 2.828-1.172s1.172-1.767 1.172-2.828v-24c0-1.061-0.421-2.078-1.172-2.828s-1.767-1.172-2.828-1.172h-24z"></path>
<path fill="#074bb9" style="fill: var(--color12, #074bb9)" d="M17.86 13.176l-4.58 0.574-0.164 0.76 0.9 0.166c0.588 0.14 0.704 0.352 0.576 0.938l-1.476 6.936c-0.388 1.794 0.21 2.638 1.616 2.638 1.090 0 2.356-0.504 2.93-1.196l0.176-0.832c-0.4 0.352-0.984 0.492-1.372 0.492-0.55 0-0.75-0.386-0.608-1.066l2.002-9.41z"></path>
<path fill="#074bb9" style="fill: var(--color12, #074bb9)" d="M16 11c1.105 0 2-0.895 2-2s-0.895-2-2-2c-1.105 0-2 0.895-2 2s0.895 2 2 2z"></path>
</symbol>
<symbol id="icon-journal-Max" viewBox="0 0 32 32">
<path fill="#074bb9" style="fill: var(--color12, #074bb9)" d="M7.2 0h19.556c1.037 0 2.032 0.421 2.766 1.172s1.146 1.768 1.146 2.828v24c0 1.061-0.412 2.078-1.146 2.828s-1.728 1.172-2.766 1.172h-19.556c-1.037 0-2.032-0.421-2.766-1.172s-1.146-1.768-1.146-2.828v-2h1.956v2c0 0.53 0.206 1.039 0.573 1.414s0.864 0.586 1.383 0.586h19.556c0.519 0 1.016-0.211 1.383-0.586s0.573-0.884 0.573-1.414v-24c0-0.53-0.206-1.039-0.573-1.414s-0.864-0.586-1.383-0.586h-19.556c-0.519 0-1.016 0.211-1.383 0.586s-0.573 0.884-0.573 1.414v2h-1.956v-2c0-1.061 0.412-2.078 1.146-2.828s1.728-1.172 2.766-1.172z"></path>
<path fill="#074bb9" style="fill: var(--color12, #074bb9)" d="M3.289 10v-1c0-0.265 0.103-0.52 0.286-0.707s0.432-0.293 0.691-0.293c0.259 0 0.508 0.105 0.691 0.293s0.286 0.442 0.286 0.707v1h0.978c0.259 0 0.508 0.105 0.691 0.293s0.286 0.442 0.286 0.707-0.103 0.52-0.286 0.707c-0.183 0.188-0.432 0.293-0.691 0.293h-3.911c-0.259 0-0.508-0.105-0.691-0.293s-0.286-0.442-0.286-0.707c0-0.265 0.103-0.52 0.286-0.707s0.432-0.293 0.691-0.293h0.978zM3.289 16v-1c0-0.265 0.103-0.52 0.286-0.707s0.432-0.293 0.691-0.293c0.259 0 0.508 0.105 0.691 0.293s0.286 0.442 0.286 0.707v1h0.978c0.259 0 0.508 0.105 0.691 0.293s0.286 0.442 0.286 0.707-0.103 0.52-0.286 0.707c-0.183 0.188-0.432 0.293-0.691 0.293h-3.911c-0.259 0-0.508-0.105-0.691-0.293s-0.286-0.442-0.286-0.707c0-0.265 0.103-0.52 0.286-0.707s0.432-0.293 0.691-0.293h0.978zM3.289 22v-1c0-0.265 0.103-0.52 0.286-0.707s0.432-0.293 0.691-0.293c0.259 0 0.508 0.105 0.691 0.293s0.286 0.442 0.286 0.707v1h0.978c0.259 0 0.508 0.105 0.691 0.293s0.286 0.442 0.286 0.707-0.103 0.52-0.286 0.707c-0.183 0.188-0.432 0.293-0.691 0.293h-3.911c-0.259 0-0.508-0.105-0.691-0.293s-0.286-0.442-0.286-0.707c0-0.265 0.103-0.52 0.286-0.707s0.432-0.293 0.691-0.293h0.978z"></path>
<path fill="#074bb9" style="fill: var(--color12, #074bb9)" d="M11.111 23c0-0.265 0.103-0.52 0.286-0.707s0.432-0.293 0.691-0.293h3.911c0.259 0 0.508 0.105 0.691 0.293s0.286 0.442 0.286 0.707-0.103 0.52-0.286 0.707c-0.183 0.188-0.432 0.293-0.691 0.293h-3.911c-0.259 0-0.508-0.105-0.691-0.293s-0.286-0.442-0.286-0.707zM11.111 19c0-0.265 0.103-0.52 0.286-0.707s0.432-0.293 0.691-0.293h9.778c0.259 0 0.508 0.105 0.691 0.293s0.286 0.442 0.286 0.707-0.103 0.52-0.286 0.707c-0.183 0.188-0.432 0.293-0.691 0.293h-9.778c-0.259 0-0.508-0.105-0.691-0.293s-0.286-0.442-0.286-0.707zM14.533 9c0.389 0 0.762-0.158 1.037-0.439s0.43-0.663 0.43-1.061-0.155-0.779-0.43-1.061c-0.275-0.281-0.648-0.439-1.037-0.439s-0.762 0.158-1.037 0.439c-0.275 0.281-0.43 0.663-0.43 1.061s0.155 0.779 0.43 1.061c0.275 0.281 0.648 0.439 1.037 0.439z"></path>
<path fill="#074bb9" style="fill: var(--color12, #074bb9)" d="M11.397 13.293c-0.183 0.188-0.286 0.442-0.286 0.707s0.103 0.52 0.286 0.707c0.183 0.188 0.432 0.293 0.691 0.293h9.778c0.259 0 0.508-0.105 0.691-0.293s0.286-0.442 0.286-0.707-0.103-0.52-0.286-0.707c-0.183-0.188-0.432-0.293-0.691-0.293h-9.778c-0.259 0-0.508 0.105-0.691 0.293z"></path>
</symbol>
<symbol id="icon-journal" viewBox="0 0 32 32">
<path fill="#074bb9" style="fill: var(--color12, #074bb9)" d="M7.2 0h19.556c1.037 0 2.032 0.421 2.765 1.172s1.146 1.768 1.146 2.828v24c0 1.061-0.412 2.078-1.146 2.828s-1.728 1.172-2.765 1.172h-19.556c-1.037 0-2.032-0.421-2.766-1.172s-1.146-1.767-1.146-2.828v-2h1.956v2c0 0.53 0.206 1.039 0.573 1.414s0.864 0.586 1.383 0.586h19.556c0.519 0 1.016-0.211 1.383-0.586s0.573-0.884 0.573-1.414v-24c0-0.53-0.206-1.039-0.573-1.414s-0.864-0.586-1.383-0.586h-19.556c-0.519 0-1.016 0.211-1.383 0.586s-0.573 0.884-0.573 1.414v2h-1.956v-2c0-1.061 0.412-2.078 1.146-2.828s1.728-1.172 2.766-1.172z"></path>
<path fill="#074bb9" style="fill: var(--color12, #074bb9)" d="M3.289 10v-1c0-0.265 0.103-0.52 0.286-0.707s0.432-0.293 0.691-0.293c0.259 0 0.508 0.105 0.691 0.293s0.286 0.442 0.286 0.707v1h0.978c0.259 0 0.508 0.105 0.691 0.293s0.286 0.442 0.286 0.707c0 0.265-0.103 0.52-0.286 0.707s-0.432 0.293-0.691 0.293h-3.911c-0.259 0-0.508-0.105-0.691-0.293s-0.286-0.442-0.286-0.707c0-0.265 0.103-0.52 0.286-0.707s0.432-0.293 0.691-0.293h0.978zM3.289 16v-1c0-0.265 0.103-0.52 0.286-0.707s0.432-0.293 0.691-0.293 0.508 0.105 0.691 0.293c0.183 0.187 0.286 0.442 0.286 0.707v1h0.978c0.259 0 0.508 0.105 0.691 0.293s0.286 0.442 0.286 0.707-0.103 0.52-0.286 0.707c-0.183 0.188-0.432 0.293-0.691 0.293h-3.911c-0.259 0-0.508-0.105-0.691-0.293s-0.286-0.442-0.286-0.707 0.103-0.52 0.286-0.707c0.183-0.188 0.432-0.293 0.691-0.293h0.978zM3.289 22v-1c0-0.265 0.103-0.52 0.286-0.707s0.432-0.293 0.691-0.293 0.508 0.105 0.691 0.293c0.183 0.187 0.286 0.442 0.286 0.707v1h0.978c0.259 0 0.508 0.105 0.691 0.293s0.286 0.442 0.286 0.707-0.103 0.52-0.286 0.707c-0.183 0.188-0.432 0.293-0.691 0.293h-3.911c-0.259 0-0.508-0.105-0.691-0.293s-0.286-0.442-0.286-0.707 0.103-0.52 0.286-0.707c0.183-0.188 0.432-0.293 0.691-0.293h0.978z"></path>
<path fill="#074bb9" style="fill: var(--color12, #074bb9)" d="M11.111 23c0-0.265 0.103-0.52 0.286-0.707s0.432-0.293 0.691-0.293h3.911c0.259 0 0.508 0.105 0.691 0.293s0.286 0.442 0.286 0.707-0.103 0.52-0.286 0.707c-0.183 0.188-0.432 0.293-0.691 0.293h-3.911c-0.259 0-0.508-0.105-0.691-0.293s-0.286-0.442-0.286-0.707zM11.111 19c0-0.265 0.103-0.52 0.286-0.707s0.432-0.293 0.691-0.293h9.778c0.259 0 0.508 0.105 0.691 0.293s0.286 0.442 0.286 0.707-0.103 0.52-0.286 0.707c-0.183 0.188-0.432 0.293-0.691 0.293h-9.778c-0.259 0-0.508-0.105-0.691-0.293s-0.286-0.442-0.286-0.707zM14.533 9c0.389 0 0.762-0.158 1.037-0.439s0.43-0.663 0.43-1.061c0-0.398-0.155-0.779-0.43-1.061s-0.648-0.439-1.037-0.439c-0.389 0-0.762 0.158-1.037 0.439s-0.43 0.663-0.43 1.061c0 0.398 0.155 0.779 0.43 1.061s0.648 0.439 1.037 0.439z"></path>
<path fill="#074bb9" style="fill: var(--color12, #074bb9)" d="M11.398 14.293c-0.183 0.187-0.286 0.442-0.286 0.707s0.103 0.52 0.286 0.707c0.183 0.188 0.432 0.293 0.691 0.293h9.778c0.259 0 0.508-0.105 0.691-0.293s0.286-0.442 0.286-0.707-0.103-0.52-0.286-0.707c-0.183-0.188-0.432-0.293-0.691-0.293h-9.778c-0.259 0-0.508 0.105-0.691 0.293z"></path>
</symbol>
<symbol id="icon-Menu-2" viewBox="0 0 32 32">
<path fill="#1f75ff" style="fill: var(--color1, #1f75ff)" d="M25 28c-0.265 0-0.52-0.105-0.707-0.293s-0.293-0.442-0.293-0.707v-22c0-0.265 0.105-0.52 0.293-0.707s0.442-0.293 0.707-0.293 0.52 0.105 0.707 0.293c0.188 0.188 0.293 0.442 0.293 0.707v22c0 0.265-0.105 0.52-0.293 0.707s-0.442 0.293-0.707 0.293zM19 28c-0.265 0-0.52-0.105-0.707-0.293s-0.293-0.442-0.293-0.707v-22c0-0.265 0.105-0.52 0.293-0.707s0.442-0.293 0.707-0.293 0.52 0.105 0.707 0.293c0.188 0.188 0.293 0.442 0.293 0.707v22c0 0.265-0.105 0.52-0.293 0.707s-0.442 0.293-0.707 0.293zM13 28c-0.265 0-0.52-0.105-0.707-0.293s-0.293-0.442-0.293-0.707v-22c0-0.265 0.105-0.52 0.293-0.707s0.442-0.293 0.707-0.293c0.265 0 0.52 0.105 0.707 0.293s0.293 0.442 0.293 0.707v22c0 0.265-0.105 0.52-0.293 0.707s-0.442 0.293-0.707 0.293zM7 28c-0.265 0-0.52-0.105-0.707-0.293s-0.293-0.442-0.293-0.707v-22c0-0.265 0.105-0.52 0.293-0.707s0.442-0.293 0.707-0.293c0.265 0 0.52 0.105 0.707 0.293s0.293 0.442 0.293 0.707v22c0 0.265-0.105 0.52-0.293 0.707s-0.442 0.293-0.707 0.293z"></path>
</symbol>
<symbol id="icon-Menu" viewBox="0 0 32 32">
<path fill="#1f75ff" style="fill: var(--color1, #1f75ff)" d="M4 25c0-0.265 0.105-0.52 0.293-0.707s0.442-0.293 0.707-0.293h22c0.265 0 0.52 0.105 0.707 0.293s0.293 0.442 0.293 0.707-0.105 0.52-0.293 0.707c-0.187 0.188-0.442 0.293-0.707 0.293h-22c-0.265 0-0.52-0.105-0.707-0.293s-0.293-0.442-0.293-0.707zM4 19c0-0.265 0.105-0.52 0.293-0.707s0.442-0.293 0.707-0.293h22c0.265 0 0.52 0.105 0.707 0.293s0.293 0.442 0.293 0.707-0.105 0.52-0.293 0.707c-0.187 0.188-0.442 0.293-0.707 0.293h-22c-0.265 0-0.52-0.105-0.707-0.293s-0.293-0.442-0.293-0.707zM4 13c0-0.265 0.105-0.52 0.293-0.707s0.442-0.293 0.707-0.293h22c0.265 0 0.52 0.105 0.707 0.293s0.293 0.442 0.293 0.707-0.105 0.52-0.293 0.707c-0.187 0.188-0.442 0.293-0.707 0.293h-22c-0.265 0-0.52-0.105-0.707-0.293s-0.293-0.442-0.293-0.707zM4 7c0-0.265 0.105-0.52 0.293-0.707s0.442-0.293 0.707-0.293h22c0.265 0 0.52 0.105 0.707 0.293s0.293 0.442 0.293 0.707-0.105 0.52-0.293 0.707c-0.187 0.188-0.442 0.293-0.707 0.293h-22c-0.265 0-0.52-0.105-0.707-0.293s-0.293-0.442-0.293-0.707z"></path>
</symbol>

<symbol id="icon-people" viewBox="0 0 32 32">
<path d="M30 28c0 0 2 0 2-2s-2-8-10-8c-8 0-10 6-10 8s2 2 2 2h16zM14.044 26h15.912c0.009-0.001 0.019-0.002 0.028-0.004l0.016-0.004c-0.004-0.528-0.334-2.060-1.52-3.44-1.104-1.294-3.044-2.552-6.48-2.552-3.434 0-5.374 1.26-6.48 2.552-1.186 1.38-1.518 2.914-1.52 3.44 0.015 0.003 0.029 0.005 0.044 0.008zM22 14c1.061 0 2.078-0.421 2.828-1.172s1.172-1.768 1.172-2.828-0.421-2.078-1.172-2.828c-0.75-0.75-1.768-1.172-2.828-1.172s-2.078 0.421-2.828 1.172c-0.75 0.75-1.172 1.768-1.172 2.828s0.421 2.078 1.172 2.828c0.75 0.75 1.768 1.172 2.828 1.172zM28 10c0 0.788-0.155 1.568-0.457 2.296s-0.744 1.389-1.301 1.947c-0.557 0.557-1.219 0.999-1.947 1.301s-1.508 0.457-2.296 0.457-1.568-0.155-2.296-0.457c-0.728-0.302-1.389-0.744-1.947-1.301s-0.999-1.219-1.301-1.947c-0.301-0.728-0.457-1.508-0.457-2.296 0-1.591 0.632-3.117 1.757-4.243s2.651-1.757 4.243-1.757c1.591 0 3.117 0.632 4.243 1.757s1.757 2.651 1.757 4.243zM13.872 18.56c-0.8-0.252-1.625-0.417-2.46-0.494-0.469-0.045-0.941-0.067-1.412-0.066-8 0-10 6-10 8 0 1.334 0.666 2 2 2h8.432c-0.296-0.624-0.444-1.309-0.432-2 0-2.020 0.754-4.084 2.18-5.808 0.486-0.588 1.052-1.138 1.692-1.632zM9.84 20c-3.336 0.040-5.23 1.28-6.32 2.552-1.194 1.388-1.52 2.926-1.52 3.448h6c0-2.090 0.646-4.172 1.84-6zM3 11c0-1.591 0.632-3.117 1.757-4.243s2.651-1.757 4.243-1.757c1.591 0 3.117 0.632 4.243 1.757s1.757 2.651 1.757 4.243c0 1.591-0.632 3.117-1.757 4.243s-2.651 1.757-4.243 1.757c-1.591 0-3.117-0.632-4.243-1.757s-1.757-2.651-1.757-4.243zM9 7c-1.061 0-2.078 0.421-2.828 1.172s-1.172 1.768-1.172 2.828c0 1.061 0.421 2.078 1.172 2.828s1.768 1.172 2.828 1.172c1.061 0 2.078-0.421 2.828-1.172s1.172-1.768 1.172-2.828c0-1.061-0.421-2.078-1.172-2.828s-1.768-1.172-2.828-1.172z"></path>
</symbol>
<symbol id="icon-person-check" viewBox="0 0 32 32">
<path d="M16 10c0 1.061-0.421 2.078-1.172 2.828s-1.768 1.172-2.828 1.172-2.078-0.421-2.828-1.172c-0.75-0.75-1.172-1.768-1.172-2.828s0.421-2.078 1.172-2.828c0.75-0.75 1.768-1.172 2.828-1.172s2.078 0.421 2.828 1.172c0.75 0.75 1.172 1.768 1.172 2.828zM12 16c1.591 0 3.117-0.632 4.243-1.757s1.757-2.651 1.757-4.243-0.632-3.117-1.757-4.243c-1.125-1.125-2.651-1.757-4.243-1.757s-3.117 0.632-4.243 1.757-1.757 2.651-1.757 4.243c0 1.591 0.632 3.117 1.757 4.243s2.651 1.757 4.243 1.757zM24 26c0 2-2 2-2 2h-20c0 0-2 0-2-2s2-8 12-8c10 0 12 6 12 8zM22 25.992c-0.002-0.492-0.308-1.972-1.664-3.328-1.304-1.304-3.758-2.664-8.336-2.664-4.58 0-7.032 1.36-8.336 2.664-1.356 1.356-1.66 2.836-1.664 3.328h20zM31.708 10.292c0.093 0.093 0.167 0.203 0.217 0.325s0.076 0.252 0.076 0.383c0 0.132-0.026 0.262-0.076 0.383s-0.124 0.232-0.217 0.325l-6 6c-0.093 0.093-0.203 0.167-0.325 0.217s-0.252 0.076-0.383 0.076-0.262-0.026-0.383-0.076c-0.122-0.050-0.232-0.124-0.325-0.217l-3-3c-0.188-0.188-0.293-0.442-0.293-0.708s0.105-0.52 0.293-0.708c0.188-0.188 0.442-0.293 0.708-0.293s0.52 0.105 0.708 0.293l2.292 2.294 5.292-5.294c0.093-0.093 0.203-0.167 0.325-0.217s0.252-0.076 0.383-0.076 0.262 0.026 0.383 0.076c0.122 0.050 0.232 0.124 0.325 0.217z"></path>
</symbol>
<symbol id="icon-telephone" viewBox="0 0 32 32">
<path d="M7.293 2.647c-0.118-0.152-0.267-0.277-0.437-0.367s-0.357-0.143-0.549-0.154c-0.192-0.012-0.384 0.017-0.564 0.085s-0.343 0.174-0.479 0.31l-2.068 2.070c-0.966 0.968-1.322 2.338-0.9 3.54 1.751 4.975 4.601 9.492 8.336 13.216 3.724 3.735 8.241 6.584 13.216 8.336 1.202 0.422 2.572 0.066 3.54-0.9l2.068-2.068c0.136-0.136 0.242-0.299 0.31-0.479s0.097-0.372 0.085-0.564c-0.012-0.192-0.065-0.379-0.154-0.549s-0.215-0.319-0.367-0.437l-4.614-3.588c-0.162-0.126-0.351-0.213-0.552-0.255s-0.409-0.038-0.608 0.011l-4.38 1.094c-0.585 0.146-1.197 0.138-1.778-0.023s-1.11-0.469-1.536-0.895l-4.912-4.914c-0.426-0.426-0.735-0.955-0.897-1.536s-0.169-1.193-0.023-1.778l1.096-4.38c0.050-0.199 0.054-0.407 0.011-0.608s-0.13-0.39-0.255-0.552l-3.588-4.614zM3.753 1.013c0.35-0.35 0.77-0.622 1.233-0.797s0.958-0.25 1.452-0.219c0.494 0.031 0.976 0.166 1.414 0.398s0.821 0.553 1.125 0.944l3.588 4.612c0.658 0.846 0.89 1.948 0.63 2.988l-1.094 4.38c-0.057 0.227-0.053 0.464 0.009 0.69s0.182 0.431 0.347 0.596l4.914 4.914c0.166 0.165 0.371 0.285 0.597 0.348s0.464 0.065 0.691 0.008l4.378-1.094c0.513-0.128 1.049-0.138 1.567-0.029s1.004 0.335 1.421 0.659l4.612 3.588c1.658 1.29 1.81 3.74 0.326 5.222l-2.068 2.068c-1.48 1.48-3.692 2.13-5.754 1.404-5.278-1.857-10.069-4.878-14.020-8.84-3.961-3.95-6.983-8.741-8.84-14.018-0.724-2.060-0.074-4.274 1.406-5.754l2.066-2.068z"></path>
</symbol>
<symbol id="icon-Select-arrow-min-1" viewBox="0 0 32 32">
<path fill="#1f75ff" style="fill: var(--color1, #1f75ff)" d="M22.733 4.294c0.106 0.093 0.191 0.203 0.248 0.325s0.087 0.252 0.087 0.383c0 0.131-0.030 0.262-0.087 0.383s-0.142 0.232-0.248 0.325l-12.904 11.291 12.904 11.291c0.106 0.093 0.19 0.203 0.248 0.325s0.087 0.252 0.087 0.383c0 0.132-0.030 0.262-0.087 0.383s-0.142 0.232-0.248 0.325-0.232 0.167-0.371 0.217c-0.139 0.050-0.288 0.076-0.438 0.076s-0.299-0.026-0.438-0.076c-0.139-0.050-0.265-0.124-0.371-0.217l-13.711-11.999c-0.106-0.093-0.191-0.203-0.248-0.325s-0.087-0.252-0.087-0.383c0-0.132 0.030-0.262 0.087-0.383s0.142-0.232 0.248-0.325l13.711-11.999c0.106-0.093 0.232-0.167 0.371-0.217s0.288-0.076 0.438-0.076c0.15 0 0.299 0.026 0.438 0.076s0.265 0.124 0.371 0.217z"></path>
</symbol>
<symbol id="icon-Select-arrow-min" viewBox="0 0 32 32">
<path fill="#1f75ff" style="fill: var(--color1, #1f75ff)" d="M8.336 28.775c-0.106-0.093-0.191-0.203-0.248-0.325s-0.087-0.252-0.087-0.383c0-0.131 0.030-0.262 0.087-0.383s0.142-0.232 0.248-0.325l12.904-11.291-12.904-11.291c-0.106-0.093-0.191-0.203-0.248-0.325s-0.087-0.252-0.087-0.383c0-0.131 0.030-0.262 0.087-0.383s0.142-0.232 0.248-0.325c0.106-0.093 0.232-0.167 0.371-0.217s0.288-0.076 0.438-0.076c0.15 0 0.299 0.026 0.438 0.076s0.265 0.124 0.371 0.217l13.711 11.999c0.106 0.093 0.191 0.203 0.248 0.325s0.087 0.252 0.087 0.383c0 0.132-0.030 0.262-0.087 0.383s-0.142 0.232-0.248 0.325l-13.711 11.999c-0.106 0.093-0.232 0.167-0.371 0.217s-0.288 0.076-0.438 0.076c-0.15 0-0.299-0.026-0.438-0.076s-0.265-0.124-0.371-0.217z"></path>
</symbol>
<symbol id="icon-StateActive" viewBox="0 0 32 32">
<path fill="#1f75ff" style="fill: var(--color1, #1f75ff)" d="M25 28c-0.265 0-0.52-0.105-0.707-0.293s-0.293-0.442-0.293-0.707v-22c0-0.265 0.105-0.52 0.293-0.707s0.442-0.293 0.707-0.293 0.52 0.105 0.707 0.293c0.188 0.188 0.293 0.442 0.293 0.707v22c0 0.265-0.105 0.52-0.293 0.707s-0.442 0.293-0.707 0.293zM19 28c-0.265 0-0.52-0.105-0.707-0.293s-0.293-0.442-0.293-0.707v-22c0-0.265 0.105-0.52 0.293-0.707s0.442-0.293 0.707-0.293 0.52 0.105 0.707 0.293c0.188 0.188 0.293 0.442 0.293 0.707v22c0 0.265-0.105 0.52-0.293 0.707s-0.442 0.293-0.707 0.293zM13 28c-0.265 0-0.52-0.105-0.707-0.293s-0.293-0.442-0.293-0.707v-22c0-0.265 0.105-0.52 0.293-0.707s0.442-0.293 0.707-0.293c0.265 0 0.52 0.105 0.707 0.293s0.293 0.442 0.293 0.707v22c0 0.265-0.105 0.52-0.293 0.707s-0.442 0.293-0.707 0.293zM7 28c-0.265 0-0.52-0.105-0.707-0.293s-0.293-0.442-0.293-0.707v-22c0-0.265 0.105-0.52 0.293-0.707s0.442-0.293 0.707-0.293c0.265 0 0.52 0.105 0.707 0.293s0.293 0.442 0.293 0.707v22c0 0.265-0.105 0.52-0.293 0.707s-0.442 0.293-0.707 0.293z"></path>
</symbol>
<symbol id="icon-StateNormal" viewBox="0 0 32 32">
<path fill="#1f75ff" style="fill: var(--color1, #1f75ff)" d="M4 25c0-0.265 0.105-0.52 0.293-0.707s0.442-0.293 0.707-0.293h22c0.265 0 0.52 0.105 0.707 0.293s0.293 0.442 0.293 0.707-0.105 0.52-0.293 0.707c-0.187 0.188-0.442 0.293-0.707 0.293h-22c-0.265 0-0.52-0.105-0.707-0.293s-0.293-0.442-0.293-0.707zM4 19c0-0.265 0.105-0.52 0.293-0.707s0.442-0.293 0.707-0.293h22c0.265 0 0.52 0.105 0.707 0.293s0.293 0.442 0.293 0.707-0.105 0.52-0.293 0.707c-0.187 0.188-0.442 0.293-0.707 0.293h-22c-0.265 0-0.52-0.105-0.707-0.293s-0.293-0.442-0.293-0.707zM4 13c0-0.265 0.105-0.52 0.293-0.707s0.442-0.293 0.707-0.293h22c0.265 0 0.52 0.105 0.707 0.293s0.293 0.442 0.293 0.707-0.105 0.52-0.293 0.707c-0.187 0.188-0.442 0.293-0.707 0.293h-22c-0.265 0-0.52-0.105-0.707-0.293s-0.293-0.442-0.293-0.707zM4 7c0-0.265 0.105-0.52 0.293-0.707s0.442-0.293 0.707-0.293h22c0.265 0 0.52 0.105 0.707 0.293s0.293 0.442 0.293 0.707-0.105 0.52-0.293 0.707c-0.187 0.188-0.442 0.293-0.707 0.293h-22c-0.265 0-0.52-0.105-0.707-0.293s-0.293-0.442-0.293-0.707z"></path>
</symbol>
</defs>
</svg>
