<svg aria-hidden="true" style="position: absolute; width: 0; height: 0; overflow: hidden;" version="1.1" xmlns="http://www.w3.org/2000/svg" xmlns:xlink="http://www.w3.org/1999/xlink">
<defs>

<symbol id="icon-location" viewBox="0 0 32 32">
<path d="M16 0c-5.523 0-10 4.477-10 10 0 10 10 22 10 22s10-12 10-22c0-5.523-4.477-10-10-10zM16 16c-3.314 0-6-2.686-6-6s2.686-6 6-6 6 2.686 6 6-2.686 6-6 6z"></path>
</symbol>

<symbol id="icon-mail" viewBox="0 0 32 32">
<path d="M16 0c-8.837 0-16 7.163-16 16s7.163 16 16 16 16-7.163 16-16-7.163-16-16-16zM8 8h16c0.286 0 0.563 0.061 0.817 0.177l-8.817 10.286-8.817-10.287c0.254-0.116 0.531-0.177 0.817-0.177zM6 22v-12c0-0.042 0.002-0.084 0.004-0.125l5.864 6.842-5.8 5.8c-0.045-0.167-0.069-0.34-0.069-0.517zM24 24h-16c-0.177 0-0.35-0.024-0.517-0.069l5.691-5.691 2.826 3.297 2.826-3.297 5.691 5.691c-0.167 0.045-0.34 0.069-0.517 0.069zM26 22c0 0.177-0.024 0.35-0.069 0.517l-5.8-5.8 5.865-6.842c0.003 0.041 0.004 0.083 0.004 0.125v12z"></path>
</symbol>

<symbol id="icon-phone" viewBox="0 0 32 32">
<path d="M22 20c-2 2-2 4-4 4s-4-2-6-4-4-4-4-6 2-2 4-4-4-8-6-8-6 6-6 6c0 4 4.109 12.109 8 16s12 8 16 8c0 0 6-4 6-6s-6-8-8-6z"></path>
</symbol>

<symbol id="icon-message" viewBox="0 0 31 32">
<path fill="none" stroke="var(--orange)" style="stroke: var(--color1, var(--orange))" stroke-linejoin="round" stroke-linecap="round" stroke-miterlimit="4" stroke-width="1.561" d="M10.406 12.038h10.407M10.406 17.241h7.805M11.707 23.745h-3.902c-1.035 0-2.028-0.411-2.759-1.143s-1.143-1.724-1.143-2.759v-10.406c0-1.035 0.411-2.028 1.143-2.759s1.724-1.143 2.759-1.143h15.61c1.035 0 2.028 0.411 2.759 1.143s1.143 1.724 1.143 2.759v10.406c0 1.035-0.411 2.028-1.143 2.759s-1.724 1.143-2.759 1.143h-3.902l-3.902 3.902-3.902-3.902z"></path>
</symbol>

<symbol id="icon-linkedin" viewBox="0 0 32 32">
<path d="M3.020 10.91h6.037v19.423h-6.037v-19.423zM6.040 1.243c0.692 0 1.369 0.205 1.945 0.59s1.024 0.932 1.289 1.571c0.265 0.64 0.334 1.344 0.199 2.023s-0.469 1.303-0.959 1.792c-0.49 0.489-1.114 0.822-1.793 0.957s-1.383 0.065-2.022-0.201c-0.639-0.265-1.186-0.715-1.57-1.291s-0.589-1.253-0.588-1.945c0.001-0.928 0.37-1.817 1.026-2.473s1.546-1.024 2.474-1.024zM12.844 10.91h5.787v2.667h0.080c0.807-1.527 2.773-3.137 5.71-3.137 6.113-0.013 7.247 4.010 7.247 9.227v10.667h-6.037v-9.45c0-2.25-0.040-5.147-3.137-5.147s-3.623 2.453-3.623 5v9.597h-6.027v-19.423z"></path>
</symbol>

<symbol id="star" viewBox="0 0 32 32">
<path fill="#961c1c" style="fill: var(--color1, #961c1c)" d="M16 24.099l5.82 3.683c1.066 0.675 2.37-0.323 2.090-1.585l-1.543-6.926 5.147-4.666c0.94-0.851 0.435-2.465-0.799-2.568l-6.773-0.602-2.65-6.544c-0.477-1.189-2.104-1.189-2.58 0l-2.65 6.53-6.773 0.602c-1.234 0.103-1.739 1.717-0.799 2.568l5.147 4.666-1.543 6.926c-0.28 1.262 1.024 2.26 2.090 1.585l5.82-3.668z"></path>
</symbol>

</defs>
</svg> 
