<?xml version="1.0" standalone="no"?>
<!DOCTYPE svg PUBLIC "-//W3C//DTD SVG 20010904//EN"
 "http://www.w3.org/TR/2001/REC-SVG-20010904/DTD/svg10.dtd">
<svg version="1.0" xmlns="http://www.w3.org/2000/svg"
 width="500.000000pt" height="500.000000pt" viewBox="0 0 500.000000 500.000000"
 preserveAspectRatio="xMidYMid meet">

<g transform="translate(0.000000,500.000000) scale(0.100000,-0.100000)"
fill="#000000" stroke="none">
<path d="M2430 3723 c-124 -12 -246 -47 -355 -101 -96 -47 -146 -83 -233 -166
-266 -252 -365 -633 -255 -980 30 -96 88 -215 108 -222 8 -4 44 -1 80 5 92 16
135 -7 135 -74 0 -13 10 -29 25 -39 13 -9 30 -34 36 -56 7 -22 20 -47 31 -56
10 -10 18 -31 18 -49 0 -18 7 -38 15 -45 8 -6 29 -50 46 -97 34 -89 62 -120
98 -108 33 10 33 38 0 124 -17 45 -28 85 -24 89 4 4 10 3 12 -3 70 -167 89
-200 116 -203 33 -4 57 13 57 40 0 11 -18 59 -40 106 -22 47 -38 87 -36 90 11
10 28 -14 77 -109 54 -103 81 -126 114 -99 23 19 18 50 -20 120 -19 36 -35 71
-35 78 0 31 23 5 65 -73 46 -85 66 -105 102 -105 27 0 63 37 63 63 0 26 -170
313 -202 340 -13 11 -37 17 -68 17 -122 0 -200 35 -251 112 -62 93 -29 148 90
148 34 0 61 4 61 9 0 15 -60 57 -100 70 -23 8 -71 9 -146 5 l-111 -7 -32 29
c-26 24 -34 41 -42 94 -28 171 27 372 144 519 l42 53 164 -1 c145 -2 169 -4
201 -22 107 -60 113 -208 10 -276 -24 -17 -48 -23 -86 -23 l-54 0 0 -80 c0
-44 2 -80 5 -80 2 0 27 14 55 30 28 17 55 30 61 30 17 0 85 38 117 65 l31 26
3 -128 c3 -123 4 -128 25 -131 18 -3 22 2 25 30 3 31 6 33 43 36 38 3 42 0 58
-33 13 -26 23 -35 42 -35 30 0 30 1 5 49 -19 38 -19 39 0 56 43 39 34 127 -17
160 -13 9 -56 19 -94 22 -59 5 -69 9 -63 22 31 77 30 171 -4 237 -11 21 -38
55 -59 76 -66 63 -91 68 -314 68 -116 0 -199 4 -199 9 0 18 164 141 240 180
330 172 736 117 1013 -137 l51 -47 -43 50 c-156 181 -387 299 -631 325 -56 5
-110 9 -119 8 -9 0 -32 -3 -51 -5z m-442 -436 l32 -33 -66 -64 c-77 -76 -113
-125 -172 -235 -47 -88 -50 -72 -10 55 32 105 149 310 176 310 5 0 22 -15 40
-33z m692 -417 c46 -46 6 -110 -67 -110 l-43 0 0 65 0 65 45 0 c32 0 51 -6 65
-20z"/>
<path d="M2941 2918 c-5 -13 -32 -74 -60 -137 -28 -62 -51 -117 -51 -122 0
-19 49 -9 55 11 5 17 15 20 71 20 53 0 66 -3 76 -20 11 -18 58 -29 58 -14 0
16 -124 284 -132 284 -5 0 -12 -10 -17 -22z m46 -133 l21 -55 -49 0 -49 0 16
38 c9 20 18 45 21 55 9 28 17 20 40 -38z"/>
<path d="M3160 2915 c0 -23 4 -25 40 -25 l40 0 0 -121 c0 -119 0 -120 23 -117
21 3 22 7 25 120 l3 117 37 3 c29 2 37 7 37 23 0 19 -8 20 -102 23 l-103 3 0
-26z"/>
<path d="M3490 2927 c-30 -15 -45 -54 -36 -91 5 -21 21 -33 72 -56 56 -25 65
-33 62 -52 -4 -30 -58 -37 -95 -13 -23 16 -27 16 -41 1 -27 -27 13 -58 81 -64
46 -4 57 -1 82 20 20 18 28 34 28 57 0 40 -24 65 -88 88 -42 16 -50 23 -50 43
0 22 4 25 35 24 19 0 43 -4 52 -8 11 -5 20 -1 27 13 10 18 7 22 -18 36 -36 18
-77 19 -111 2z"/>
<path d="M3740 2795 l0 -145 25 0 25 0 0 145 0 145 -25 0 -25 0 0 -145z"/>
<path d="M3942 2801 c-34 -76 -62 -141 -62 -145 0 -16 50 -4 60 14 9 17 21 20
75 20 55 0 65 -3 70 -20 6 -20 55 -30 55 -11 0 16 -119 276 -127 278 -5 2 -37
-59 -71 -136z m97 -18 l21 -53 -50 0 c-45 0 -50 2 -41 18 5 9 16 35 25 56 9
22 18 37 20 35 3 -2 14 -28 25 -56z"/>
<path d="M1630 1599 c0 -38 1 -40 28 -37 21 2 28 9 30 32 4 30 -10 46 -40 46
-14 0 -18 -9 -18 -41z m40 -5 c0 -31 -23 -28 -28 4 -2 15 2 22 12 22 11 0 16
-9 16 -26z"/>
<path d="M1797 1633 c-4 -3 -7 -21 -7 -40 0 -31 2 -33 33 -32 23 1 26 3 10 6
-26 5 -31 23 -8 23 21 0 19 18 -2 23 -14 4 -12 5 5 6 12 0 22 6 22 11 0 11
-43 14 -53 3z"/>
<path d="M1955 1600 c0 -29 4 -40 15 -40 21 0 19 74 -2 78 -10 2 -14 -8 -13
-38z"/>
<path d="M2091 1598 c1 -35 2 -38 8 -18 l7 25 15 -22 c21 -34 29 -28 28 20 -1
23 -4 32 -6 20 -5 -28 -20 -30 -28 -3 -11 35 -25 22 -24 -22z"/>
<path d="M2260 1600 c0 -37 2 -40 28 -39 l27 0 -25 11 c-21 9 -22 12 -7 15 9
3 17 8 17 13 0 5 -8 11 -17 13 -14 4 -12 5 5 6 30 1 28 21 -3 21 -22 0 -25 -4
-25 -40z"/>
<path d="M2542 1600 c0 -25 2 -37 5 -27 5 21 22 22 29 2 4 -8 10 -15 15 -15 6
0 5 9 -2 21 -8 15 -8 24 0 32 19 19 12 31 -7 14 -23 -21 -29 -21 -35 1 -3 9
-5 -3 -5 -28z"/>
<path d="M2707 1600 c-15 -40 -12 -51 11 -28 9 9 15 9 24 0 22 -22 27 -13 14
25 -17 50 -30 51 -49 3z m33 0 c0 -5 -5 -10 -11 -10 -5 0 -7 5 -4 10 3 6 8 10
11 10 2 0 4 -4 4 -10z"/>
<path d="M2871 1598 c0 -24 3 -37 6 -30 6 14 33 16 33 2 0 -5 4 -10 9 -10 5 0
8 17 8 38 -2 33 -5 37 -29 40 -27 3 -28 2 -27 -40z m49 12 c0 -5 -9 -10 -20
-10 -11 0 -20 5 -20 10 0 6 9 10 20 10 11 0 20 -4 20 -10z"/>
<path d="M3041 1598 c0 -24 3 -37 6 -30 6 14 33 16 33 2 0 -5 4 -10 8 -10 4 0
7 17 7 38 0 33 -3 37 -27 40 -27 3 -28 2 -27 -40z m39 12 c0 -5 -7 -10 -15
-10 -8 0 -15 5 -15 10 0 6 7 10 15 10 8 0 15 -4 15 -10z"/>
<path d="M3205 1600 c0 -29 4 -40 15 -40 11 0 15 11 15 40 1 30 -3 40 -15 40
-12 0 -16 -10 -15 -40z"/>
<path d="M3340 1600 c0 -39 1 -40 33 -39 23 1 26 3 10 6 -26 5 -31 23 -8 23
21 0 19 18 -2 23 -14 4 -12 5 5 6 33 2 27 21 -8 21 -28 0 -30 -2 -30 -40z"/>
<path d="M3501 1598 c0 -24 3 -37 6 -30 6 14 33 16 33 2 0 -5 4 -10 9 -10 5 0
8 17 8 38 -2 33 -5 37 -29 40 -27 3 -28 2 -27 -40z m49 12 c0 -5 -9 -10 -20
-10 -11 0 -20 5 -20 10 0 6 9 10 20 10 11 0 20 -4 20 -10z"/>
<path d="M3670 1600 c0 -39 1 -40 33 -39 17 0 25 3 17 6 -44 14 -45 16 -20 23
l25 7 -25 11 c-24 10 -24 11 -2 11 30 1 28 21 -3 21 -22 0 -25 -4 -25 -40z"/>
<path d="M3825 1560 c3 -5 8 -10 11 -10 2 0 4 5 4 10 0 6 -5 10 -11 10 -5 0
-7 -4 -4 -10z"/>
<path d="M1671 1463 c-1 -41 0 -43 29 -43 29 0 30 2 29 43 l-2 42 -6 -35 c-4
-22 -12 -35 -21 -35 -9 0 -17 13 -21 35 l-6 35 -2 -42z"/>
<path d="M1841 1458 c1 -35 2 -38 8 -18 l7 25 15 -22 c21 -34 29 -28 28 20 -1
23 -4 32 -6 20 -5 -28 -20 -30 -28 -3 -11 35 -25 22 -24 -22z"/>
<path d="M2011 1491 c-19 -12 -6 -41 19 -41 30 0 24 -18 -7 -23 -22 -4 -20 -4
6 -3 44 1 51 22 14 38 -27 11 -27 12 -5 15 12 3 22 9 22 14 0 11 -31 12 -49 0z"/>
<path d="M2170 1460 c0 -39 1 -40 33 -39 17 0 25 3 17 6 -44 14 -45 16 -20 23
l25 7 -25 11 c-24 10 -24 11 -2 11 30 1 28 21 -3 21 -22 0 -25 -4 -25 -40z"/>
<path d="M2331 1458 c0 -24 3 -37 6 -30 6 14 33 16 33 2 0 -5 4 -10 9 -10 5 0
8 17 8 38 -2 33 -5 37 -29 40 -27 3 -28 2 -27 -40z m49 12 c0 -5 -9 -10 -20
-10 -11 0 -20 5 -20 10 0 6 9 10 20 10 11 0 20 -4 20 -10z"/>
<path d="M2500 1460 c0 -37 2 -40 28 -39 l27 0 -25 11 c-21 9 -22 12 -7 15 9
3 17 8 17 13 0 5 -8 11 -17 13 -14 4 -12 5 5 6 30 1 28 21 -3 21 -22 0 -25 -4
-25 -40z"/>
<path d="M2781 1458 c1 -24 3 -36 6 -27 5 20 53 21 53 2 0 -7 5 -13 10 -13 6
0 10 18 10 40 0 42 -14 54 -25 20 -3 -11 -10 -20 -15 -20 -5 0 -12 9 -15 20
-11 35 -25 22 -24 -22z"/>
<path d="M2965 1460 c0 -29 4 -40 15 -40 11 0 15 11 15 40 1 30 -3 40 -15 40
-12 0 -16 -10 -15 -40z"/>
<path d="M3107 1493 c-15 -15 -7 -43 13 -43 27 0 25 -18 -2 -23 -17 -3 -14 -5
10 -6 26 -1 32 3 32 19 0 13 -7 20 -19 20 -11 0 -23 5 -26 10 -3 6 3 10 14 10
12 0 21 5 21 10 0 11 -33 14 -43 3z"/>
<path d="M3264 1485 c-8 -20 4 -35 29 -35 24 0 13 -16 -18 -23 -13 -3 -9 -5
13 -6 25 -1 32 3 32 18 0 10 -10 22 -22 26 l-23 8 23 4 c12 2 22 9 22 14 0 15
-50 10 -56 -6z"/>
<path d="M3425 1460 c0 -29 4 -40 15 -40 11 0 15 11 15 40 1 30 -3 40 -15 40
-12 0 -16 -10 -15 -40z"/>
<path d="M3567 1494 c-4 -4 -7 -23 -7 -41 0 -33 2 -34 33 -31 29 3 32 6 32 38
0 30 -4 35 -25 38 -14 2 -29 0 -33 -4z m43 -39 c0 -16 -6 -25 -15 -25 -9 0
-15 9 -15 25 0 16 6 25 15 25 9 0 15 -9 15 -25z"/>
<path d="M3730 1460 c0 -41 19 -58 21 -17 l0 22 11 -22 c17 -35 28 -27 27 20
-1 34 -2 37 -8 17 l-7 -25 -12 23 c-19 34 -32 27 -32 -18z"/>
</g>
</svg>
